<?xml version="1.0" encoding="utf-8"?>
<!-- Generator: Adobe Illustrator 19.2.0, SVG Export Plug-In . SVG Version: 6.00 Build 0)  -->
<svg version="1.1" id="Layer_1" xmlns="http://www.w3.org/2000/svg" xmlns:xlink="http://www.w3.org/1999/xlink" x="0px" y="0px"
	 viewBox="0 0 769 61" style="enable-background:new 0 0 769 61;" xml:space="preserve">
<style type="text/css">
	.st0{fill:#174C7D;}
	.st1{fill:#02314D;}
	.st2{fill:#954922;}
	.st3{fill:#8FB4DF;}
	.st4{fill:#EC1C24;}
</style>
<g>
	<path class="st0" d="M67.3,23.1c0,0.5,0,1,0,1.3c0,0.4-0.1,0.6-0.1,0.8c-0.1,0.2-0.2,0.4-0.3,0.5c-0.1,0.1-0.3,0.2-0.4,0.2
		c-0.2,0-0.4-0.1-0.7-0.2c-0.3-0.1-0.6-0.2-0.9-0.3c-0.3-0.1-0.7-0.2-1.1-0.3c-0.4-0.1-0.9-0.1-1.4-0.1c-0.6,0-1.2,0.1-1.7,0.4
		c-0.6,0.2-1.2,0.6-1.8,1.2c-0.6,0.5-1.3,1.3-2,2.1c-0.7,0.9-1.4,2-2.3,3.3v20.9c0,0.2,0,0.3-0.1,0.5c-0.1,0.1-0.2,0.2-0.5,0.3
		s-0.5,0.2-0.9,0.2c-0.4,0-0.9,0.1-1.4,0.1c-0.6,0-1,0-1.4-0.1c-0.4,0-0.7-0.1-0.9-0.2s-0.4-0.2-0.5-0.3c-0.1-0.1-0.1-0.3-0.1-0.5
		V21c0-0.2,0-0.3,0.1-0.5c0.1-0.1,0.2-0.2,0.4-0.4c0.2-0.1,0.5-0.2,0.8-0.2c0.3,0,0.8-0.1,1.3-0.1c0.5,0,0.9,0,1.3,0.1
		c0.3,0,0.6,0.1,0.8,0.2c0.2,0.1,0.3,0.2,0.4,0.4C54,20.6,54,20.8,54,21v4.6c0.9-1.3,1.7-2.3,2.4-3.1c0.8-0.8,1.5-1.4,2.2-1.9
		c0.7-0.5,1.4-0.8,2-1c0.7-0.2,1.3-0.3,2-0.3c0.3,0,0.7,0,1,0.1c0.4,0,0.8,0.1,1.2,0.2c0.4,0.1,0.8,0.2,1.1,0.3
		c0.3,0.1,0.6,0.2,0.7,0.4c0.1,0.1,0.2,0.2,0.3,0.3c0,0.1,0.1,0.2,0.1,0.4s0.1,0.4,0.1,0.7C67.3,22.1,67.3,22.5,67.3,23.1z"/>
	<path class="st0" d="M98.8,35.5c0,0.9-0.2,1.6-0.7,2c-0.5,0.4-1,0.6-1.6,0.6H75.7c0,1.8,0.2,3.3,0.5,4.8c0.4,1.4,0.9,2.6,1.8,3.6
		c0.8,1,1.9,1.8,3.2,2.3c1.3,0.5,2.9,0.8,4.9,0.8c1.5,0,2.9-0.1,4-0.4c1.2-0.2,2.2-0.5,3.1-0.8c0.9-0.3,1.6-0.6,2.1-0.8
		c0.6-0.2,1-0.4,1.3-0.4c0.2,0,0.3,0,0.4,0.1c0.1,0.1,0.2,0.2,0.3,0.4c0.1,0.2,0.1,0.4,0.2,0.7c0,0.3,0.1,0.7,0.1,1.1
		c0,0.3,0,0.6,0,0.8c0,0.2-0.1,0.4-0.1,0.6s-0.1,0.3-0.2,0.5c-0.1,0.1-0.2,0.3-0.3,0.4c-0.1,0.1-0.5,0.3-1.1,0.6
		c-0.6,0.3-1.5,0.6-2.5,0.9c-1,0.3-2.2,0.5-3.5,0.8c-1.3,0.2-2.7,0.3-4.2,0.3c-2.6,0-4.9-0.4-6.9-1.1c-2-0.7-3.6-1.8-5-3.2
		c-1.3-1.4-2.3-3.2-3-5.4c-0.7-2.2-1-4.7-1-7.5c0-2.7,0.4-5.2,1.1-7.3c0.7-2.2,1.7-4,3-5.5c1.3-1.5,2.9-2.7,4.8-3.5
		c1.9-0.8,4-1.2,6.3-1.2c2.5,0,4.6,0.4,6.4,1.2c1.7,0.8,3.2,1.9,4.3,3.2c1.1,1.4,2,2.9,2.5,4.8c0.5,1.8,0.8,3.8,0.8,5.8V35.5z
		 M93,33.7c0.1-3.1-0.6-5.4-2-7.2c-1.4-1.7-3.6-2.6-6.4-2.6c-1.4,0-2.7,0.3-3.8,0.8c-1.1,0.5-2,1.3-2.7,2.1
		c-0.7,0.9-1.3,1.9-1.7,3.1c-0.4,1.2-0.6,2.4-0.7,3.7H93z"/>
	<path class="st0" d="M133.6,52.7c0,0.2,0,0.4-0.1,0.5c-0.1,0.1-0.2,0.3-0.4,0.3c-0.2,0.1-0.5,0.1-0.8,0.2c-0.3,0-0.7,0.1-1.2,0.1
		c-0.5,0-0.9,0-1.2-0.1c-0.3,0-0.6-0.1-0.8-0.2c-0.2-0.1-0.4-0.2-0.5-0.3c-0.1-0.1-0.1-0.3-0.1-0.5v-4.2c-1.7,1.8-3.4,3.2-5.2,4.2
		c-1.8,1-3.8,1.5-5.9,1.5c-2.3,0-4.3-0.5-6-1.4c-1.6-0.9-3-2.1-4-3.7c-1-1.5-1.8-3.3-2.2-5.4c-0.5-2.1-0.7-4.3-0.7-6.6
		c0-2.7,0.3-5.2,0.9-7.4s1.5-4.1,2.6-5.6c1.2-1.6,2.6-2.7,4.3-3.6c1.7-0.8,3.7-1.3,5.9-1.3c1.9,0,3.6,0.4,5.1,1.2
		c1.5,0.8,3.1,2,4.6,3.6V5.8c0-0.2,0-0.3,0.1-0.5c0.1-0.2,0.2-0.3,0.5-0.4c0.2-0.1,0.5-0.2,0.9-0.2c0.4-0.1,0.8-0.1,1.4-0.1
		c0.6,0,1.1,0,1.4,0.1c0.4,0.1,0.7,0.1,0.9,0.2c0.2,0.1,0.4,0.2,0.5,0.4c0.1,0.2,0.2,0.3,0.2,0.5V52.7z M127.7,30.4
		c-1.6-1.9-3.1-3.4-4.6-4.5c-1.5-1-3-1.5-4.6-1.5c-1.5,0-2.7,0.4-3.8,1.1c-1,0.7-1.9,1.6-2.5,2.8c-0.6,1.2-1.1,2.5-1.4,3.9
		c-0.3,1.5-0.4,2.9-0.4,4.4c0,1.6,0.1,3.2,0.4,4.7c0.2,1.5,0.7,2.9,1.3,4.1c0.6,1.2,1.4,2.1,2.4,2.9c1,0.7,2.3,1.1,3.8,1.1
		c0.8,0,1.5-0.1,2.2-0.3c0.7-0.2,1.5-0.6,2.2-1.1c0.8-0.5,1.5-1.1,2.4-1.9c0.8-0.8,1.7-1.8,2.6-2.9V30.4z"/>
	<path class="st0" d="M150.8,10.3c0,1.4-0.3,2.3-0.8,2.8c-0.5,0.5-1.5,0.7-2.9,0.7c-1.4,0-2.3-0.2-2.8-0.7c-0.5-0.5-0.8-1.4-0.8-2.7
		c0-1.4,0.3-2.3,0.8-2.8c0.5-0.5,1.5-0.7,2.9-0.7c1.4,0,2.3,0.2,2.8,0.7C150.6,8,150.8,8.9,150.8,10.3z M150.1,52.7
		c0,0.2,0,0.3-0.1,0.5c-0.1,0.1-0.2,0.2-0.5,0.3s-0.5,0.2-0.9,0.2c-0.4,0-0.9,0.1-1.4,0.1c-0.6,0-1,0-1.4-0.1
		c-0.4,0-0.7-0.1-0.9-0.2s-0.4-0.2-0.5-0.3c-0.1-0.1-0.1-0.3-0.1-0.5V21c0-0.2,0-0.3,0.1-0.5c0.1-0.1,0.2-0.3,0.5-0.4
		s0.5-0.2,0.9-0.2c0.4,0,0.8-0.1,1.4-0.1c0.6,0,1.1,0,1.4,0.1c0.4,0,0.7,0.1,0.9,0.2s0.4,0.2,0.5,0.4c0.1,0.1,0.1,0.3,0.1,0.5V52.7z
		"/>
	<path class="st0" d="M176.1,50.4c0,0.7,0,1.2-0.1,1.6c-0.1,0.4-0.2,0.7-0.4,0.9c-0.2,0.2-0.5,0.4-0.8,0.5c-0.4,0.2-0.8,0.3-1.3,0.4
		c-0.5,0.1-1,0.2-1.5,0.3c-0.5,0.1-1.1,0.1-1.6,0.1c-1.6,0-3.1-0.2-4.2-0.7c-1.2-0.4-2.1-1.1-2.9-2c-0.8-0.9-1.3-2-1.6-3.3
		c-0.3-1.4-0.5-2.9-0.5-4.8V24.9h-4.4c-0.4,0-0.6-0.2-0.8-0.6c-0.2-0.4-0.3-1-0.3-1.8c0-0.4,0-0.8,0.1-1.1c0.1-0.3,0.1-0.6,0.2-0.8
		c0.1-0.2,0.2-0.3,0.4-0.4c0.2-0.1,0.3-0.1,0.5-0.1h4.4v-7.5c0-0.2,0-0.3,0.1-0.5c0.1-0.1,0.2-0.3,0.5-0.4c0.2-0.1,0.5-0.2,0.9-0.2
		c0.4,0,0.8-0.1,1.4-0.1c0.6,0,1.1,0,1.4,0.1c0.4,0,0.7,0.1,0.9,0.2c0.2,0.1,0.4,0.2,0.5,0.4c0.1,0.1,0.1,0.3,0.1,0.5v7.5h8.1
		c0.2,0,0.4,0,0.5,0.1c0.1,0.1,0.3,0.2,0.4,0.4c0.1,0.2,0.2,0.5,0.2,0.8c0,0.3,0.1,0.7,0.1,1.1c0,0.8-0.1,1.5-0.3,1.8
		s-0.5,0.6-0.8,0.6h-8.1v17.7c0,2.2,0.3,3.8,1,5c0.6,1.1,1.8,1.7,3.5,1.7c0.5,0,1-0.1,1.4-0.2c0.4-0.1,0.8-0.2,1.1-0.3
		c0.3-0.1,0.6-0.2,0.8-0.3c0.2-0.1,0.4-0.2,0.6-0.2c0.1,0,0.2,0,0.3,0.1c0.1,0.1,0.2,0.2,0.2,0.3c0.1,0.2,0.1,0.4,0.2,0.7
		C176.1,49.6,176.1,49.9,176.1,50.4z"/>
	<path class="st0" d="M274.2,36.5c0,2.6-0.3,5-1,7.1c-0.7,2.2-1.7,4-3,5.6c-1.4,1.6-3,2.8-5.1,3.7c-2,0.9-4.4,1.3-7.1,1.3
		c-2.6,0-4.9-0.4-6.8-1.2c-1.9-0.8-3.6-1.9-4.8-3.4c-1.3-1.5-2.3-3.3-2.9-5.4c-0.6-2.1-1-4.5-1-7.2c0-2.6,0.3-5,1-7.1
		c0.7-2.2,1.7-4,3-5.6c1.4-1.6,3-2.8,5.1-3.7c2-0.9,4.4-1.3,7.1-1.3c2.6,0,4.9,0.4,6.8,1.2c1.9,0.8,3.6,1.9,4.8,3.4
		c1.3,1.5,2.3,3.3,2.9,5.4C273.8,31.4,274.2,33.8,274.2,36.5z M268.1,36.9c0-1.7-0.2-3.3-0.5-4.9c-0.3-1.5-0.8-2.9-1.6-4
		c-0.7-1.2-1.7-2.1-3-2.7c-1.3-0.7-2.8-1-4.7-1c-1.7,0-3.2,0.3-4.5,0.9c-1.2,0.6-2.3,1.5-3.1,2.6c-0.8,1.1-1.4,2.4-1.8,4
		c-0.4,1.5-0.6,3.2-0.6,5c0,1.7,0.2,3.4,0.5,4.9c0.3,1.5,0.9,2.9,1.6,4c0.7,1.1,1.7,2,3,2.7c1.3,0.7,2.8,1,4.7,1
		c1.7,0,3.2-0.3,4.4-0.9c1.3-0.6,2.3-1.5,3.1-2.6s1.4-2.4,1.8-3.9C267.9,40.4,268.1,38.7,268.1,36.9z"/>
	<path class="st0" d="M288.5,52.7c0,0.2,0,0.3-0.1,0.5c-0.1,0.1-0.2,0.2-0.5,0.3s-0.5,0.2-0.9,0.2c-0.4,0-0.9,0.1-1.4,0.1
		c-0.6,0-1,0-1.4-0.1c-0.4,0-0.7-0.1-0.9-0.2c-0.2-0.1-0.4-0.2-0.5-0.3c-0.1-0.1-0.1-0.3-0.1-0.5V5.6c0-0.2,0-0.4,0.1-0.5
		c0.1-0.1,0.2-0.3,0.5-0.4c0.2-0.1,0.5-0.2,0.9-0.2c0.4,0,0.8-0.1,1.4-0.1c0.6,0,1.1,0,1.4,0.1c0.4,0,0.7,0.1,0.9,0.2
		c0.2,0.1,0.4,0.2,0.5,0.4c0.1,0.1,0.1,0.3,0.1,0.5V52.7z"/>
	<path class="st0" d="M305.1,52.7c0,0.2,0,0.3-0.1,0.5c-0.1,0.1-0.2,0.2-0.5,0.3s-0.5,0.2-0.9,0.2c-0.4,0-0.9,0.1-1.4,0.1
		c-0.6,0-1,0-1.4-0.1c-0.4,0-0.7-0.1-0.9-0.2c-0.2-0.1-0.4-0.2-0.5-0.3c-0.1-0.1-0.1-0.3-0.1-0.5V5.6c0-0.2,0-0.4,0.1-0.5
		c0.1-0.1,0.2-0.3,0.5-0.4c0.2-0.1,0.5-0.2,0.9-0.2c0.4,0,0.8-0.1,1.4-0.1c0.6,0,1.1,0,1.4,0.1c0.4,0,0.7,0.1,0.9,0.2
		c0.2,0.1,0.4,0.2,0.5,0.4c0.1,0.1,0.1,0.3,0.1,0.5V52.7z"/>
	<path class="st0" d="M341.7,35.5c0,0.9-0.2,1.6-0.7,2c-0.5,0.4-1,0.6-1.6,0.6h-20.9c0,1.8,0.2,3.3,0.5,4.8c0.4,1.4,0.9,2.6,1.8,3.6
		c0.8,1,1.9,1.8,3.2,2.3c1.3,0.5,2.9,0.8,4.9,0.8c1.5,0,2.9-0.1,4-0.4c1.2-0.2,2.2-0.5,3.1-0.8c0.9-0.3,1.6-0.6,2.1-0.8
		c0.6-0.2,1-0.4,1.3-0.4c0.2,0,0.3,0,0.4,0.1c0.1,0.1,0.2,0.2,0.3,0.4c0.1,0.2,0.1,0.4,0.2,0.7c0,0.3,0.1,0.7,0.1,1.1
		c0,0.3,0,0.6,0,0.8c0,0.2-0.1,0.4-0.1,0.6c0,0.2-0.1,0.3-0.2,0.5c-0.1,0.1-0.2,0.3-0.3,0.4c-0.1,0.1-0.5,0.3-1.1,0.6
		c-0.6,0.3-1.5,0.6-2.5,0.9c-1,0.3-2.2,0.5-3.5,0.8c-1.3,0.2-2.7,0.3-4.2,0.3c-2.6,0-4.9-0.4-6.9-1.1c-2-0.7-3.6-1.8-5-3.2
		c-1.3-1.4-2.3-3.2-3-5.4c-0.7-2.2-1-4.7-1-7.5c0-2.7,0.4-5.2,1.1-7.3s1.7-4,3-5.5c1.3-1.5,2.9-2.7,4.8-3.5c1.9-0.8,4-1.2,6.3-1.2
		c2.5,0,4.6,0.4,6.4,1.2c1.7,0.8,3.2,1.9,4.3,3.2c1.1,1.4,2,2.9,2.5,4.8c0.5,1.8,0.8,3.8,0.8,5.8V35.5z M335.8,33.7
		c0.1-3.1-0.6-5.4-2-7.2c-1.4-1.7-3.6-2.6-6.4-2.6c-1.4,0-2.7,0.3-3.8,0.8c-1.1,0.5-2,1.3-2.7,2.1c-0.7,0.9-1.3,1.9-1.7,3.1
		c-0.4,1.2-0.6,2.4-0.7,3.7H335.8z"/>
	<path class="st0" d="M372.1,47.9c0,0.4,0,0.7,0,1c0,0.3-0.1,0.5-0.1,0.7c-0.1,0.2-0.1,0.4-0.2,0.5c-0.1,0.2-0.3,0.4-0.6,0.7
		c-0.3,0.3-0.8,0.7-1.5,1.1c-0.7,0.4-1.5,0.8-2.4,1.2c-0.9,0.3-1.8,0.6-2.9,0.8c-1,0.2-2.1,0.3-3.2,0.3c-2.3,0-4.3-0.4-6.1-1.1
		c-1.8-0.8-3.2-1.9-4.4-3.3c-1.2-1.4-2.1-3.2-2.7-5.3c-0.6-2.1-0.9-4.5-0.9-7.3c0-3.1,0.4-5.8,1.1-8.1c0.8-2.2,1.8-4.1,3.1-5.5
		c1.3-1.4,2.9-2.5,4.7-3.2c1.8-0.7,3.7-1,5.8-1c1,0,2,0.1,2.9,0.3c1,0.2,1.8,0.4,2.6,0.7c0.8,0.3,1.5,0.7,2.1,1.1
		c0.6,0.4,1.1,0.7,1.4,1c0.3,0.3,0.5,0.5,0.6,0.7c0.1,0.2,0.2,0.4,0.3,0.6c0.1,0.2,0.1,0.5,0.1,0.8c0,0.3,0,0.6,0,1.1
		c0,0.9-0.1,1.6-0.3,1.9c-0.2,0.4-0.5,0.5-0.8,0.5c-0.4,0-0.8-0.2-1.2-0.6c-0.5-0.4-1-0.8-1.7-1.3c-0.7-0.5-1.6-0.9-2.6-1.3
		c-1-0.4-2.2-0.6-3.5-0.6c-2.8,0-4.9,1.1-6.4,3.2c-1.5,2.1-2.2,5.3-2.2,9.4c0,2,0.2,3.8,0.6,5.4c0.4,1.5,1,2.8,1.7,3.9
		c0.8,1,1.7,1.8,2.8,2.3c1.1,0.5,2.3,0.8,3.8,0.8c1.3,0,2.5-0.2,3.5-0.6c1-0.4,1.9-0.9,2.6-1.4c0.7-0.5,1.4-1,1.9-1.4
		c0.5-0.4,0.9-0.6,1.2-0.6c0.2,0,0.3,0,0.4,0.1c0.1,0.1,0.2,0.3,0.3,0.5c0.1,0.2,0.1,0.5,0.2,0.8C372,47,372.1,47.4,372.1,47.9z"/>
	<path class="st0" d="M448.2,36.5c0,2.6-0.3,5-1,7.1c-0.7,2.2-1.7,4-3,5.6c-1.4,1.6-3,2.8-5.1,3.7c-2,0.9-4.4,1.3-7.1,1.3
		c-2.6,0-4.9-0.4-6.8-1.2c-1.9-0.8-3.6-1.9-4.8-3.4c-1.3-1.5-2.3-3.3-2.9-5.4c-0.6-2.1-1-4.5-1-7.2c0-2.6,0.3-5,1-7.1
		c0.7-2.2,1.7-4,3-5.6c1.4-1.6,3-2.8,5.1-3.7c2-0.9,4.4-1.3,7.1-1.3c2.6,0,4.9,0.4,6.8,1.2c1.9,0.8,3.6,1.9,4.8,3.4
		c1.3,1.5,2.3,3.3,2.9,5.4C447.9,31.4,448.2,33.8,448.2,36.5z M442.2,36.9c0-1.7-0.2-3.3-0.5-4.9c-0.3-1.5-0.8-2.9-1.6-4
		c-0.7-1.2-1.7-2.1-3-2.7c-1.3-0.7-2.8-1-4.7-1c-1.7,0-3.2,0.3-4.5,0.9c-1.2,0.6-2.3,1.5-3.1,2.6c-0.8,1.1-1.4,2.4-1.8,4
		c-0.4,1.5-0.6,3.2-0.6,5c0,1.7,0.2,3.4,0.5,4.9c0.3,1.5,0.9,2.9,1.6,4c0.7,1.1,1.7,2,3,2.7c1.3,0.7,2.8,1,4.7,1
		c1.7,0,3.2-0.3,4.4-0.9s2.3-1.5,3.1-2.6s1.4-2.4,1.8-3.9C442,40.4,442.2,38.7,442.2,36.9z"/>
	<path class="st0" d="M484.1,52.7c0,0.2,0,0.3-0.1,0.5c-0.1,0.1-0.2,0.2-0.5,0.3s-0.5,0.2-0.9,0.2c-0.4,0-0.8,0.1-1.4,0.1
		c-0.6,0-1.1,0-1.4-0.1c-0.4,0-0.7-0.1-0.9-0.2c-0.2-0.1-0.4-0.2-0.5-0.3c-0.1-0.1-0.1-0.3-0.1-0.5V34.1c0-1.8-0.1-3.3-0.4-4.4
		s-0.7-2.1-1.2-2.9c-0.5-0.8-1.2-1.4-2.1-1.8c-0.9-0.4-1.9-0.6-3-0.6c-1.5,0-2.9,0.5-4.4,1.6c-1.5,1-3,2.5-4.6,4.5v22.2
		c0,0.2,0,0.3-0.1,0.5c-0.1,0.1-0.2,0.2-0.5,0.3s-0.5,0.2-0.9,0.2c-0.4,0-0.9,0.1-1.4,0.1c-0.6,0-1,0-1.4-0.1
		c-0.4,0-0.7-0.1-0.9-0.2c-0.2-0.1-0.4-0.2-0.5-0.3c-0.1-0.1-0.1-0.3-0.1-0.5V21c0-0.2,0-0.3,0.1-0.5c0.1-0.1,0.2-0.2,0.4-0.4
		c0.2-0.1,0.5-0.2,0.8-0.2s0.8-0.1,1.3-0.1c0.5,0,0.9,0,1.3,0.1c0.3,0,0.6,0.1,0.8,0.2c0.2,0.1,0.3,0.2,0.4,0.4
		c0.1,0.1,0.1,0.3,0.1,0.5v4.2c1.8-2,3.6-3.5,5.3-4.4c1.8-0.9,3.6-1.4,5.4-1.4c2.1,0,3.9,0.4,5.3,1.1c1.4,0.7,2.6,1.7,3.5,2.9
		c0.9,1.2,1.5,2.6,1.9,4.2c0.4,1.6,0.6,3.5,0.6,5.8V52.7z"/>
	<path class="st0" d="M591.1,52.7c0,0.3-0.1,0.5-0.3,0.6c-0.2,0.1-0.4,0.2-0.8,0.3c-0.3,0.1-0.8,0.1-1.4,0.1c-0.6,0-1.1,0-1.5-0.1
		c-0.4-0.1-0.6-0.2-0.8-0.3s-0.2-0.4-0.2-0.6v-3.2c-1.4,1.5-2.9,2.6-4.6,3.5c-1.7,0.8-3.5,1.2-5.4,1.2c-1.7,0-3.2-0.2-4.5-0.7
		c-1.4-0.4-2.5-1.1-3.5-1.9c-1-0.8-1.7-1.8-2.2-3c-0.5-1.2-0.8-2.6-0.8-4.1c0-1.8,0.4-3.3,1.1-4.7c0.7-1.3,1.8-2.4,3.1-3.3
		c1.4-0.9,3-1.5,5-2c2-0.4,4.2-0.7,6.7-0.7h4.4v-2.5c0-1.2-0.1-2.3-0.4-3.2c-0.3-0.9-0.7-1.7-1.3-2.3c-0.6-0.6-1.3-1.1-2.2-1.4
		c-0.9-0.3-2-0.5-3.4-0.5c-1.4,0-2.7,0.2-3.9,0.5c-1.1,0.3-2.1,0.7-3,1.1c-0.9,0.4-1.6,0.8-2.1,1.1c-0.6,0.3-1,0.5-1.3,0.5
		c-0.2,0-0.4,0-0.5-0.1s-0.3-0.2-0.4-0.4c-0.1-0.2-0.2-0.4-0.2-0.7c0-0.3-0.1-0.6-0.1-1c0-0.6,0-1.1,0.1-1.4c0.1-0.3,0.3-0.7,0.6-1
		c0.3-0.3,0.9-0.7,1.6-1.1c0.8-0.4,1.7-0.8,2.7-1.1c1-0.3,2.1-0.6,3.3-0.8c1.2-0.2,2.4-0.3,3.6-0.3c2.3,0,4.2,0.3,5.8,0.8
		s2.9,1.3,3.9,2.3c1,1,1.7,2.2,2.1,3.7c0.4,1.5,0.7,3.2,0.7,5.2V52.7z M585.3,38.2h-5c-1.6,0-3,0.1-4.2,0.4
		c-1.2,0.3-2.1,0.7-2.9,1.2c-0.8,0.5-1.3,1.2-1.7,1.9c-0.4,0.7-0.5,1.6-0.5,2.6c0,1.6,0.5,3,1.6,3.9c1,1,2.5,1.5,4.4,1.5
		c1.5,0,2.9-0.4,4.2-1.2c1.3-0.8,2.7-2,4.1-3.6V38.2z"/>
	<path class="st0" d="M617.8,23.1c0,0.5,0,1,0,1.3c0,0.4-0.1,0.6-0.1,0.8c-0.1,0.2-0.2,0.4-0.3,0.5c-0.1,0.1-0.3,0.2-0.4,0.2
		c-0.2,0-0.4-0.1-0.7-0.2c-0.3-0.1-0.6-0.2-0.9-0.3c-0.3-0.1-0.7-0.2-1.1-0.3c-0.4-0.1-0.9-0.1-1.4-0.1c-0.6,0-1.2,0.1-1.7,0.4
		c-0.6,0.2-1.2,0.6-1.8,1.2c-0.6,0.5-1.3,1.3-2,2.1c-0.7,0.9-1.4,2-2.3,3.3v20.9c0,0.2,0,0.3-0.1,0.5c-0.1,0.1-0.2,0.2-0.5,0.3
		c-0.2,0.1-0.5,0.2-0.9,0.2c-0.4,0-0.9,0.1-1.4,0.1c-0.6,0-1,0-1.4-0.1c-0.4,0-0.7-0.1-0.9-0.2c-0.2-0.1-0.4-0.2-0.5-0.3
		c-0.1-0.1-0.1-0.3-0.1-0.5V21c0-0.2,0-0.3,0.1-0.5c0.1-0.1,0.2-0.2,0.4-0.4c0.2-0.1,0.5-0.2,0.8-0.2s0.8-0.1,1.3-0.1
		c0.5,0,0.9,0,1.3,0.1c0.3,0,0.6,0.1,0.8,0.2c0.2,0.1,0.3,0.2,0.4,0.4c0.1,0.1,0.1,0.3,0.1,0.5v4.6c0.9-1.3,1.7-2.3,2.4-3.1
		c0.8-0.8,1.5-1.4,2.2-1.9c0.7-0.5,1.4-0.8,2-1c0.7-0.2,1.3-0.3,2-0.3c0.3,0,0.7,0,1,0.1s0.8,0.1,1.2,0.2c0.4,0.1,0.8,0.2,1.1,0.3
		c0.3,0.1,0.6,0.2,0.7,0.4c0.1,0.1,0.2,0.2,0.3,0.3c0,0.1,0.1,0.2,0.1,0.4c0,0.2,0.1,0.4,0.1,0.7C617.8,22.1,617.8,22.5,617.8,23.1z
		"/>
	<path class="st0" d="M642.2,50.4c0,0.7,0,1.2-0.1,1.6c-0.1,0.4-0.2,0.7-0.4,0.9c-0.2,0.2-0.5,0.4-0.8,0.5c-0.4,0.2-0.8,0.3-1.3,0.4
		c-0.5,0.1-1,0.2-1.5,0.3c-0.5,0.1-1.1,0.1-1.6,0.1c-1.6,0-3.1-0.2-4.2-0.7c-1.2-0.4-2.1-1.1-2.9-2c-0.8-0.9-1.3-2-1.6-3.3
		c-0.3-1.4-0.5-2.9-0.5-4.8V24.9h-4.4c-0.4,0-0.6-0.2-0.8-0.6c-0.2-0.4-0.3-1-0.3-1.8c0-0.4,0-0.8,0.1-1.1c0.1-0.3,0.1-0.6,0.2-0.8
		c0.1-0.2,0.2-0.3,0.4-0.4c0.2-0.1,0.3-0.1,0.5-0.1h4.4v-7.5c0-0.2,0-0.3,0.1-0.5c0.1-0.1,0.2-0.3,0.5-0.4c0.2-0.1,0.5-0.2,0.9-0.2
		c0.4,0,0.8-0.1,1.4-0.1c0.6,0,1.1,0,1.4,0.1c0.4,0,0.7,0.1,0.9,0.2c0.2,0.1,0.4,0.2,0.5,0.4c0.1,0.1,0.1,0.3,0.1,0.5v7.5h8.1
		c0.2,0,0.4,0,0.5,0.1c0.1,0.1,0.3,0.2,0.4,0.4c0.1,0.2,0.2,0.5,0.2,0.8c0,0.3,0.1,0.7,0.1,1.1c0,0.8-0.1,1.5-0.3,1.8
		c-0.2,0.4-0.5,0.6-0.8,0.6h-8.1v17.7c0,2.2,0.3,3.8,1,5c0.6,1.1,1.8,1.7,3.5,1.7c0.5,0,1-0.1,1.4-0.2c0.4-0.1,0.8-0.2,1.1-0.3
		c0.3-0.1,0.6-0.2,0.8-0.3c0.2-0.1,0.4-0.2,0.6-0.2c0.1,0,0.2,0,0.3,0.1c0.1,0.1,0.2,0.2,0.2,0.3c0.1,0.2,0.1,0.4,0.2,0.7
		C642.1,49.6,642.2,49.9,642.2,50.4z"/>
	<path class="st0" d="M396.3,50.4c0,0.7,0,1.2-0.1,1.6c-0.1,0.4-0.2,0.7-0.4,0.9c-0.2,0.2-0.5,0.4-0.8,0.5c-0.4,0.2-0.8,0.3-1.3,0.4
		c-0.5,0.1-1,0.2-1.5,0.3c-0.5,0.1-1.1,0.1-1.6,0.1c-1.6,0-3.1-0.2-4.2-0.7c-1.2-0.4-2.1-1.1-2.9-2c-0.8-0.9-1.3-2-1.6-3.3
		c-0.3-1.4-0.5-2.9-0.5-4.8V24.9h-4.4c-0.4,0-0.6-0.2-0.8-0.6s-0.3-1-0.3-1.8c0-0.4,0-0.8,0.1-1.1c0.1-0.3,0.1-0.6,0.2-0.8
		c0.1-0.2,0.2-0.3,0.4-0.4c0.2-0.1,0.3-0.1,0.5-0.1h4.4v-7.5c0-0.2,0-0.3,0.1-0.5c0.1-0.1,0.2-0.3,0.5-0.4c0.2-0.1,0.5-0.2,0.9-0.2
		c0.4,0,0.8-0.1,1.4-0.1c0.6,0,1.1,0,1.4,0.1c0.4,0,0.7,0.1,0.9,0.2s0.4,0.2,0.5,0.4c0.1,0.1,0.1,0.3,0.1,0.5v7.5h8.1
		c0.2,0,0.4,0,0.5,0.1c0.1,0.1,0.3,0.2,0.4,0.4c0.1,0.2,0.2,0.5,0.2,0.8c0,0.3,0.1,0.7,0.1,1.1c0,0.8-0.1,1.5-0.3,1.8
		s-0.5,0.6-0.8,0.6H387v17.7c0,2.2,0.3,3.8,1,5c0.6,1.1,1.8,1.7,3.5,1.7c0.5,0,1-0.1,1.4-0.2c0.4-0.1,0.8-0.2,1.1-0.3
		c0.3-0.1,0.6-0.2,0.8-0.3c0.2-0.1,0.4-0.2,0.6-0.2c0.1,0,0.2,0,0.3,0.1c0.1,0.1,0.2,0.2,0.2,0.3c0.1,0.2,0.1,0.4,0.2,0.7
		C396.2,49.6,396.3,49.9,396.3,50.4z"/>
	<path class="st0" d="M677.2,52.7c0,0.2,0,0.3-0.1,0.5c-0.1,0.1-0.2,0.2-0.5,0.3c-0.2,0.1-0.5,0.2-0.9,0.2c-0.4,0-0.8,0.1-1.4,0.1
		c-0.6,0-1.1,0-1.4-0.1c-0.4,0-0.7-0.1-0.9-0.2c-0.2-0.1-0.4-0.2-0.5-0.3c-0.1-0.1-0.1-0.3-0.1-0.5V34.1c0-1.8-0.1-3.3-0.4-4.4
		s-0.7-2.1-1.2-2.9c-0.5-0.8-1.2-1.4-2.1-1.8c-0.9-0.4-1.9-0.6-3-0.6c-1.5,0-2.9,0.5-4.4,1.6c-1.5,1-3,2.5-4.6,4.5v22.2
		c0,0.2,0,0.3-0.1,0.5c-0.1,0.1-0.2,0.2-0.5,0.3c-0.2,0.1-0.5,0.2-0.9,0.2c-0.4,0-0.9,0.1-1.4,0.1c-0.6,0-1,0-1.4-0.1
		c-0.4,0-0.7-0.1-0.9-0.2c-0.2-0.1-0.4-0.2-0.5-0.3c-0.1-0.1-0.1-0.3-0.1-0.5V21c0-0.2,0-0.3,0.1-0.5c0.1-0.1,0.2-0.2,0.4-0.4
		c0.2-0.1,0.5-0.2,0.8-0.2s0.8-0.1,1.3-0.1c0.5,0,0.9,0,1.3,0.1s0.6,0.1,0.8,0.2c0.2,0.1,0.3,0.2,0.4,0.4c0.1,0.1,0.1,0.3,0.1,0.5
		v4.2c1.8-2,3.6-3.5,5.3-4.4c1.8-0.9,3.6-1.4,5.4-1.4c2.1,0,3.9,0.4,5.3,1.1c1.4,0.7,2.6,1.7,3.5,2.9c0.9,1.2,1.5,2.6,1.9,4.2
		c0.4,1.6,0.6,3.5,0.6,5.8V52.7z"/>
	<path class="st0" d="M713.6,35.5c0,0.9-0.2,1.6-0.7,2c-0.5,0.4-1,0.6-1.6,0.6h-20.9c0,1.8,0.2,3.3,0.5,4.8c0.4,1.4,0.9,2.6,1.8,3.6
		c0.8,1,1.9,1.8,3.2,2.3c1.3,0.5,2.9,0.8,4.9,0.8c1.5,0,2.9-0.1,4-0.4c1.2-0.2,2.2-0.5,3.1-0.8c0.9-0.3,1.6-0.6,2.1-0.8
		c0.6-0.2,1-0.4,1.3-0.4c0.2,0,0.3,0,0.4,0.1c0.1,0.1,0.2,0.2,0.3,0.4c0.1,0.2,0.1,0.4,0.2,0.7c0,0.3,0.1,0.7,0.1,1.1
		c0,0.3,0,0.6,0,0.8c0,0.2-0.1,0.4-0.1,0.6c0,0.2-0.1,0.3-0.2,0.5c-0.1,0.1-0.2,0.3-0.3,0.4c-0.1,0.1-0.5,0.3-1.1,0.6
		c-0.6,0.3-1.5,0.6-2.5,0.9c-1,0.3-2.2,0.5-3.5,0.8c-1.3,0.2-2.7,0.3-4.2,0.3c-2.6,0-4.9-0.4-6.9-1.1c-2-0.7-3.6-1.8-5-3.2
		c-1.3-1.4-2.3-3.2-3-5.4c-0.7-2.2-1-4.7-1-7.5c0-2.7,0.4-5.2,1.1-7.3c0.7-2.2,1.7-4,3-5.5c1.3-1.5,2.9-2.7,4.8-3.5
		c1.9-0.8,4-1.2,6.3-1.2c2.5,0,4.6,0.4,6.4,1.2c1.7,0.8,3.2,1.9,4.3,3.2c1.1,1.4,2,2.9,2.5,4.8c0.5,1.8,0.8,3.8,0.8,5.8V35.5z
		 M707.7,33.7c0.1-3.1-0.6-5.4-2-7.2c-1.4-1.7-3.6-2.6-6.4-2.6c-1.4,0-2.7,0.3-3.8,0.8c-1.1,0.5-2,1.3-2.7,2.1
		c-0.7,0.9-1.3,1.9-1.7,3.1c-0.4,1.2-0.6,2.4-0.7,3.7H707.7z"/>
	<path class="st0" d="M739.7,23.1c0,0.5,0,1,0,1.3c0,0.4-0.1,0.6-0.1,0.8c-0.1,0.2-0.2,0.4-0.3,0.5c-0.1,0.1-0.3,0.2-0.4,0.2
		c-0.2,0-0.4-0.1-0.7-0.2c-0.3-0.1-0.6-0.2-0.9-0.3s-0.7-0.2-1.1-0.3c-0.4-0.1-0.9-0.1-1.4-0.1c-0.6,0-1.2,0.1-1.7,0.4
		c-0.6,0.2-1.2,0.6-1.8,1.2c-0.6,0.5-1.3,1.3-2,2.1c-0.7,0.9-1.4,2-2.3,3.3v20.9c0,0.2,0,0.3-0.1,0.5c-0.1,0.1-0.2,0.2-0.5,0.3
		c-0.2,0.1-0.5,0.2-0.9,0.2c-0.4,0-0.9,0.1-1.4,0.1c-0.6,0-1,0-1.4-0.1c-0.4,0-0.7-0.1-0.9-0.2s-0.4-0.2-0.5-0.3
		c-0.1-0.1-0.1-0.3-0.1-0.5V21c0-0.2,0-0.3,0.1-0.5c0.1-0.1,0.2-0.2,0.4-0.4c0.2-0.1,0.5-0.2,0.8-0.2s0.8-0.1,1.3-0.1
		c0.5,0,0.9,0,1.3,0.1c0.3,0,0.6,0.1,0.8,0.2c0.2,0.1,0.3,0.2,0.4,0.4c0.1,0.1,0.1,0.3,0.1,0.5v4.6c0.9-1.3,1.7-2.3,2.4-3.1
		c0.8-0.8,1.5-1.4,2.2-1.9c0.7-0.5,1.4-0.8,2-1c0.7-0.2,1.3-0.3,2-0.3c0.3,0,0.7,0,1,0.1c0.4,0,0.8,0.1,1.2,0.2
		c0.4,0.1,0.8,0.2,1.1,0.3c0.3,0.1,0.6,0.2,0.7,0.4c0.1,0.1,0.2,0.2,0.3,0.3c0,0.1,0.1,0.2,0.1,0.4s0.1,0.4,0.1,0.7
		C739.7,22.1,739.7,22.5,739.7,23.1z"/>
	<path class="st0" d="M765,44.1c0,1.6-0.3,3.1-0.9,4.3c-0.6,1.3-1.5,2.3-2.6,3.2c-1.1,0.9-2.4,1.5-3.9,2c-1.5,0.4-3.2,0.7-5,0.7
		c-1.1,0-2.2-0.1-3.2-0.3c-1-0.2-1.9-0.4-2.7-0.7c-0.8-0.3-1.5-0.6-2.1-0.8c-0.6-0.3-1-0.6-1.2-0.8c-0.3-0.2-0.4-0.6-0.6-1
		c-0.1-0.4-0.2-1-0.2-1.7c0-0.4,0-0.8,0.1-1.1c0-0.3,0.1-0.6,0.2-0.7c0.1-0.2,0.2-0.3,0.3-0.4c0.1-0.1,0.3-0.1,0.4-0.1
		c0.3,0,0.6,0.2,1.1,0.5c0.5,0.3,1.1,0.7,1.9,1c0.7,0.4,1.6,0.7,2.6,1c1,0.3,2.2,0.5,3.5,0.5c1,0,1.9-0.1,2.7-0.3s1.5-0.5,2.1-0.9
		c0.6-0.4,1-0.9,1.4-1.6c0.3-0.6,0.5-1.4,0.5-2.3c0-0.9-0.2-1.6-0.7-2.3c-0.5-0.6-1.1-1.2-1.8-1.6c-0.8-0.5-1.6-0.9-2.5-1.3
		c-0.9-0.4-1.9-0.7-2.9-1.1c-1-0.4-2-0.9-2.9-1.4c-1-0.5-1.8-1.1-2.6-1.9c-0.8-0.7-1.4-1.6-1.8-2.6c-0.5-1-0.7-2.2-0.7-3.6
		c0-1.2,0.2-2.4,0.7-3.6c0.5-1.1,1.2-2.1,2.2-3c1-0.9,2.2-1.5,3.6-2.1s3.1-0.8,5.1-0.8c0.8,0,1.7,0.1,2.5,0.2
		c0.8,0.1,1.6,0.3,2.3,0.5c0.7,0.2,1.3,0.4,1.7,0.7s0.8,0.5,1.1,0.7c0.2,0.2,0.4,0.4,0.5,0.5c0.1,0.1,0.1,0.3,0.2,0.5
		c0,0.2,0.1,0.4,0.1,0.7c0,0.3,0.1,0.6,0.1,1c0,0.4,0,0.7-0.1,1c0,0.3-0.1,0.5-0.2,0.7c-0.1,0.2-0.2,0.3-0.3,0.4
		c-0.1,0.1-0.2,0.1-0.4,0.1c-0.2,0-0.5-0.1-0.9-0.4c-0.4-0.3-0.9-0.5-1.6-0.8c-0.6-0.3-1.4-0.6-2.2-0.8c-0.9-0.3-1.8-0.4-2.9-0.4
		c-1,0-1.9,0.1-2.6,0.3c-0.8,0.2-1.4,0.5-1.8,1c-0.5,0.4-0.8,0.9-1.1,1.5c-0.2,0.6-0.4,1.2-0.4,1.8c0,0.9,0.2,1.7,0.7,2.3
		c0.5,0.6,1.1,1.2,1.8,1.6s1.6,0.9,2.6,1.3c1,0.4,1.9,0.8,2.9,1.2c1,0.4,2,0.8,3,1.3c1,0.5,1.8,1.1,2.6,1.8c0.8,0.7,1.4,1.6,1.8,2.5
		C764.8,41.5,765,42.7,765,44.1z"/>
	<path class="st0" d="M406.2,13.8c1.4,0,2.3-0.2,2.9-0.7c0.5-0.5,0.8-1.4,0.8-2.8c0-1.3-0.3-2.2-0.8-2.7c-0.5-0.5-1.4-0.7-2.8-0.7
		c-1.4,0-2.3,0.2-2.9,0.7c-0.5,0.5-0.8,1.4-0.8,2.8c0,1.3,0.3,2.2,0.8,2.7C403.9,13.5,404.9,13.8,406.2,13.8z"/>
	<path class="st0" d="M409.1,21.3c-0.2-0.6-0.6-1-1.1-1.2c-0.2-0.1-0.4-0.1-0.6-0.1h-2.3c-0.1,0-0.3,0-0.4,0
		c-0.8,0.2-1.4,0.9-1.4,1.7v2.1v3h0v25.8c0,0.2,0,0.3,0.1,0.5c0.1,0.1,0.3,0.2,0.5,0.3c0.2,0.1,0.5,0.2,0.9,0.2
		c0.4,0,0.9,0.1,1.4,0.1c0.5,0,1,0,1.4-0.1c0.4,0,0.7-0.1,0.9-0.2c0.2-0.1,0.4-0.2,0.5-0.3c0.1-0.1,0.1-0.3,0.1-0.5V23.9v-2v-0.1
		C409.2,21.6,409.2,21.5,409.1,21.3z"/>
	<path class="st1" d="M43.1,2.6L43.1,2.6c-0.4-0.3-0.8-0.7-1.2-1l-0.2-0.2h-0.3h-0.2l-0.4,0.3c-0.1-0.1-0.3-0.2-0.4-0.3
		c-0.2-0.1-0.4-0.2-0.7-0.2c-0.4,0-0.7,0.1-1.1,0.3c-0.2,0.1-0.3,0.2-0.4,0.2l-0.1,0c-0.5,0-0.9,0.1-1.3,0.2
		c-0.3,0.1-0.6,0.2-1.1,0.2l-0.1,0l-1,0.4l-0.1,0l-0.1,0.1c-0.2,0.2-0.8,0.5-1.7,0.8c-0.9,0.3-1.5,0.7-2,1.2c-0.1,0-0.2,0.1-0.3,0.2
		c-0.1,0.1-0.2,0.3-0.2,0.4c-0.2-0.1-0.3-0.1-0.6-0.1c-0.3,0-0.7,0.1-0.9,0.4l0,0L28.6,6c-1.2,0.7-2.3,1.5-3.3,2.3
		c-0.5,0.4-0.9,0.8-1.2,1.1c-0.1,0.1-0.2,0.3-0.3,0.4L23.7,10c0,0.1-0.1,0.2-0.1,0.3v0.1l0,0.1c-0.1,0-0.1,0-0.2,0
		c-0.2,0-0.3,0-0.4,0.1c-0.3,0.2-0.7,0.4-1.1,0.8c-0.4,0.4-1,0.9-1.6,1.6c-0.6,0.3-1.1,0.6-1.4,1c-0.3,0.3-0.6,0.7-0.7,1.1L18,15.2
		l0,0c-0.2,0.1-0.4,0.3-0.5,0.5c-0.2,0.2-0.5,0.6-0.7,0.9l-0.2,0.2l0.3,0.9c-0.1,0.2-0.1,0.3-0.2,0.4c0,0-0.1,0-0.1,0
		c-0.4,0-0.7,0.2-1,0.4c-0.3,0.2-0.5,0.5-0.6,0.9c-0.3,0.6-0.6,1.1-0.9,1.4L14,21v0.2c0,0.2,0,0.3,0.1,0.5c-0.1,0-0.2,0.1-0.4,0.1
		c-0.2,0.1-0.4,0.3-0.5,0.4c-0.3,0.3-0.6,0.7-0.6,1.2c0,0.2,0,0.2,0.1,0.3l0.1,0.3c0,0.1,0.1,0.2,0.1,0.3c-0.1,0-0.2,0.1-0.2,0.2
		l-0.2,0c-0.4,0-0.6,0.2-0.7,0.3c-0.2,0.2-0.4,0.4-0.6,0.7c-0.4,0.6-0.7,1-0.7,1.5c0,0.2-0.1,0.2-0.2,0.3l0,0
		c-0.2,0.2-0.4,0.3-0.6,0.4l-0.1,0l-0.3,0.4l-0.2,0.2l-0.1,0.2c0,0.1-0.1,0.2-0.1,0.3V29l0.2,0.9l0,0c0,0.1,0,0.2,0,0.2c0,0,0,0,0,0
		c-0.2,0.1-0.4,0.3-0.5,0.6c-0.1,0.2-0.2,0.3-0.4,0.5c-0.4,0.3-0.6,0.7-0.9,1.4c-0.1,0.3-0.3,0.5-0.3,0.7L7,33.5
		c0,0.1,0,0.2-0.1,0.3v0.1l-0.3,0.3l-0.1,0.1l0,0.1l-1.2,3.3l0,0c-0.1,0.1-0.1,0.3-0.2,0.5c-0.1,0.2-0.1,0.5-0.2,0.9
		c-0.1,0.7-0.5,1.7-1,3.1c-0.3,0.7-0.5,1.3-0.6,1.7c-0.1,0.2-0.1,0.4-0.2,0.5c0,0.2-0.1,0.3-0.1,0.4v0.1l0.1,0.4L3,46.5l0,0v0.3v0.1
		l0.1,0.4c0,0.6,0.1,1.4,0.2,2.3l0,0.1l1,3.2c0,0.1,0,0.1,0,0.1c0.1,0.2,0.2,0.3,0.3,0.6l0,0c0.2,0.3,0.3,0.5,0.3,0.9l0,0.2l0.1,0.1
		c0.4,0.4,0.6,0.6,0.7,0.7c0.1,0.4,0.2,0.7,0.4,1C6.4,56.7,6.7,56.9,7,57c0.3,0.5,0.6,1,1,1.3c0.4,0.3,1,0.5,1.5,0.5h0.3
		c1.1,0.6,2.2,1,3.3,1c0.1,0,0.2,0,0.3,0c0.1,0,0.2-0.1,0.3-0.1l0,0l0.6-0.3c0.2,0.1,0.3,0.1,0.4,0.2l0.2,0.1c0.1,0,0.1,0,0.3,0
		c0.3,0,0.5-0.1,0.7-0.2c0.2-0.2,0.4-0.4,0.5-0.7c0.1,0,0.3,0,0.4,0c0.2,0,0.5-0.1,0.7-0.2c0.1-0.1,0.3-0.2,0.4-0.3l0.4-0.1l0,0
		c0.2,0,0.4-0.1,0.6-0.3c0.1-0.1,0.1-0.1,0.2-0.2c0.2,0,0.3,0,0.5,0h0.1l1.9-0.6c0.3,0,0.6-0.2,0.9-0.5c0.3-0.2,0.5-0.5,0.8-0.9
		c0.3,0,0.5-0.1,0.7-0.2c0.3-0.2,0.5-0.4,0.7-0.7c0.1-0.1,0.1-0.2,0.1-0.3c0.5-0.1,0.9-0.2,1.3-0.4c0.4-0.2,0.8-0.4,1-0.8
		c0.1-0.2,0.3-0.4,0.4-0.5l0.1-0.1l0,0l0,0l0,0c0.2-0.1,0.4-0.4,0.4-0.7v0c0.1,0.1,0.3,0.1,0.4,0.1c0.2,0,0.5-0.1,0.6-0.2
		c0.2-0.1,0.3-0.3,0.4-0.4c0.1-0.2,0.3-0.4,0.3-0.4l0,0c0.2-0.1,0.3-0.3,0.4-0.5c0.1-0.2,0.2-0.4,0.3-0.6c0.1-0.2,0.1-0.3,0.2-0.3
		l0.2-0.1l0,0c0.5,0,1-0.3,1.4-0.7c0.1-0.1,0.2-0.2,0.2-0.3l0.3,0l0.3,0l0.3-0.3l0.1-0.1l0-0.1c0.2-0.4,0.8-1.2,1.7-2.1
		c0.4,0,0.7-0.1,1-0.4c0.3-0.3,0.4-0.6,0.5-1l0,0l0,0c0,0,0.2-0.2,0.4-0.3l0,0c0.4-0.2,0.6-0.5,0.9-0.8c0.2-0.3,0.4-0.7,0.6-1.2
		c0.9-0.3,1.6-1,2-1.9l0,0c0,0,0-0.1,0.2-0.1l0,0c0.2-0.1,0.4-0.2,0.6-0.4c0.1,0,0.1,0,0.1-0.1c0.2-0.1,0.3-0.3,0.3-0.4
		c0-0.1,0.1-0.3,0.1-0.4c0-0.2,0.1-0.3,0.2-0.4l0,0l1.7-1.6l0.1-0.7l0.4-0.4l0,0c0.4-0.3,0.6-0.7,0.5-1.2c0-0.6-0.1-1.2-0.4-1.6
		c-0.1-0.2-0.3-0.4-0.6-0.5c-0.2-0.1-0.5-0.2-0.7-0.2c-0.1,0-0.3,0-0.4,0.1c-0.1,0-0.2,0.1-0.3,0.2l-0.8,0.4
		c-0.6,0.1-1.1,0.3-1.5,0.6c-0.2,0.1-0.4,0.3-0.5,0.5c-0.1,0.2-0.2,0.4-0.2,0.7c0,0.1,0,0.2,0,0.2h-0.1c-0.2,0-0.4,0.1-0.6,0.2
		c-0.3,0.2-0.5,0.4-0.6,0.7c-0.1,0.2-0.2,0.5-0.3,0.7h-0.1h-0.1l-0.1,0c-0.3,0.1-0.5,0.2-0.7,0.5c-0.2,0.2-0.3,0.5-0.3,0.8
		c0,0.1,0,0.1,0,0.2l-0.3,0l-0.3,0l-1.6,1.6c-0.4,0.2-0.8,0.5-1,0.8c-0.2,0.2-0.3,0.5-0.4,0.8c-0.5,0.3-0.8,0.5-1.1,0.7
		c-0.2,0.1-0.3,0.2-0.4,0.4c-0.1,0.1-0.2,0.2-0.2,0.4c-0.2,0-0.3,0-0.4,0c-0.3,0-0.6,0.2-0.8,0.4c-0.2,0.2-0.4,0.5-0.5,0.8
		c-0.1,0.4-0.8,1.1-1.9,2c-0.6,0.5-1,0.9-1.4,1.2c-0.2,0.2-0.3,0.3-0.4,0.4c-0.1,0.1-0.2,0.2-0.3,0.4l0,0c-0.1,0.1-0.1,0.1-0.2,0.1
		l0,0c-0.1,0-0.3,0-0.4,0.1c-0.1,0-0.2,0.1-0.4,0.2l0,0c-0.5,0.5-1.2,1-2.1,1.6c-0.2,0-0.4,0.1-0.5,0.2c-0.2,0.2-0.4,0.4-0.6,0.6
		c-0.2,0.2-0.3,0.4-0.4,0.5l-0.1,0.1l0,0l0,0l0,0c-0.1,0.1-0.2,0.2-0.3,0.4h0l-0.1,0c-0.5,0.2-0.9,0.3-1,0.3c-0.3,0-0.6,0.1-0.8,0.3
		c-0.2,0.2-0.4,0.4-0.5,0.7c-0.1,0.2-0.2,0.3-0.3,0.3c-0.1,0.1-0.3,0.1-0.6,0.1h-0.7h-0.2l-0.1,0.1c-0.6,0.4-1.1,0.6-1.6,0.7l0,0
		c-0.6,0.1-1,0.1-1.2,0.2l0,0c-0.1,0-0.3,0.1-0.6,0.1c-0.1,0-0.2,0-0.3,0c-0.3-0.5-0.5-0.9-0.7-1.3c-0.2-0.4-0.4-0.6-0.7-0.8l0,0
		c-0.1,0-0.1-0.1-0.1-0.1c0.1,0,0.1-0.1,0.2-0.1l0.3-0.3l-0.4-1l0.4-2.7v0c0-0.2-0.1-0.5-0.2-0.7c0-0.1-0.1-0.1-0.1-0.1
		c0.2-0.4,0.4-0.8,0.5-1.1c0.1-0.3,0.2-0.6,0.5-0.9c0.4-0.5,0.5-1.1,0.5-1.8c0-0.2-0.1-0.5-0.2-0.7c0.1-0.1,0.3-0.2,0.4-0.4
		c0.2-0.3,0.4-0.6,0.4-1v-0.5l0.1-0.2c0.1-0.2,0.1-0.3,0.2-0.4l0-0.1l0.5-0.4l0.2-0.2v-0.2c0,0,0-0.2,0.1-0.5
		c0.1-0.3,0.2-0.7,0.3-1.2c0.4-0.4,0.7-0.8,0.8-1.2c0.1-0.3,0.2-0.6,0.4-0.8c0.2-0.3,0.4-0.7,0.5-1.1c0.1-0.2,0.3-0.8,0.7-1.5
		l0.1-0.2l-0.1-0.6l0.1-0.1c0.2-0.2,0.3-0.4,0.4-0.7c0.1-0.1,0.2-0.2,0.3-0.4c0.1-0.2,0.2-0.4,0.3-0.7l0,0l0.4-0.8
		c0.3-0.4,0.6-0.8,0.7-1.1l0.1-0.2l-0.2-0.8c0.5-0.3,1-0.5,1.3-0.8c0.4-0.4,0.7-0.9,0.7-1.5V25c0.1-0.2,0.3-0.4,0.4-0.6l0,0l0.3-0.6
		c0.4-0.6,0.6-1.2,0.8-1.9c0.1-0.1,0.2-0.1,0.2-0.2c0.2-0.2,0.3-0.3,0.5-0.6c0.2-0.2,0.3-0.5,0.4-0.7c0.1-0.2,0.1-0.3,0.2-0.5h0.1
		l0.5-0.6c0.4-0.3,0.7-0.6,1-0.9c0.1-0.2,0.3-0.4,0.3-0.6c0.1,0,0.1-0.1,0.2-0.1c0.3-0.2,0.4-0.5,0.5-0.8c0.1-0.2,0.1-0.4,0.2-0.6
		h0.2l0.4-0.2l0.1,0l1.6-1.8c0.1-0.1,0.2-0.2,0.3-0.3c0.1-0.2,0.2-0.4,0.2-0.6v-0.2h0.2h0.2l0.5-0.5l0.1-0.1l0-0.1
		c0.2-0.3,0.3-0.6,0.4-0.7l0,0c0.3,0,0.7-0.1,0.9-0.3c0.2-0.2,0.4-0.5,0.5-0.8l0.6-0.4l0.1-0.1l0.7-0.9C33.6,9.2,34,9,34.3,8.7l0,0
		c0.3-0.2,0.5-0.3,0.5-0.4c0.2-0.1,0.4-0.2,0.5-0.3c0.1-0.1,0.2-0.3,0.3-0.5c0,0,0,0,0,0c0.2,0.1,0.4,0.2,0.6,0.2
		c0.3,0,0.5-0.1,0.9-0.2c0.3-0.1,0.7-0.3,1.2-0.6c0.5-0.2,0.8-0.4,1.1-0.5c0.3-0.1,0.5-0.2,0.6-0.2c0.3,0,0.4,0.1,0.5,0.2
		c0,0,0.1,0.2,0.2,0.6c0.1,0.3,0.1,0.8,0.2,1.4c-0.3,0.6-0.6,1.3-0.7,2.1c-0.1,0.4-0.1,0.7-0.2,0.9l-0.1,0.2
		c-0.2,0.1-0.4,0.3-0.5,0.4c-0.2,0.2-0.3,0.5-0.3,0.8v0.7c-0.2,0.2-0.4,0.3-0.6,0.4l-0.2,0.2c-0.1,0.1-0.2,0.2-0.2,0.5v0.5l-0.1,0.3
		l-1.5,2.4c-0.3,0.1-0.5,0.2-0.7,0.4c-0.2,0.2-0.4,0.6-0.6,0.9c-0.4,0.3-0.7,0.5-1,0.8c-0.3,0.3-0.5,0.6-0.5,1c0,0.2,0,0.3,0.1,0.4
		c0,0,0,0,0,0c0,0,0,0,0,0h-0.2l-0.1,0.1c-1.6,1-2.9,1.9-3.7,2.8c-0.9,0.9-1.4,1.8-1.4,2.7c0,0.8,0.4,1.5,1.1,2.2
		c0.7,0.6,1.5,1,2.3,1c0.7,0,1.3-0.3,1.9-0.8c0.6-0.5,1.2-1.2,1.7-2.1l0.1-0.2l-0.1-0.7c0.6-0.3,1-0.7,1.3-1.3
		c0.2-0.4,0.6-1,1.4-1.9l0.1-0.1l0-0.1c0.5-1.1,0.9-1.8,1.2-2.2c0.2-0.2,0.3-0.4,0.4-0.5l0.1-0.2l0-0.1c1.5-1.7,2.3-3.1,2.6-4.2
		c0.2-0.9,0.4-1.6,0.7-2.1c0.4-0.6,0.6-1.5,0.8-2.7c0.4-0.4,0.7-1,0.7-1.6v0l-0.1-1.5l0.2-1.8v0C45.1,4.8,44.4,3.6,43.1,2.6z
		 M35.6,7.4C35.6,7.4,35.6,7.4,35.6,7.4L35.6,7.4L35.6,7.4z"/>
	<path class="st2" d="M236.5,2.6L236.5,2.6c-0.4-0.3-0.8-0.7-1.2-1l-0.2-0.2h-0.3h-0.2l-0.4,0.3c-0.1-0.1-0.3-0.2-0.4-0.3
		c-0.2-0.1-0.4-0.2-0.7-0.2c-0.4,0-0.7,0.1-1.1,0.3c-0.2,0.1-0.3,0.2-0.4,0.2l-0.1,0c-0.5,0-0.9,0.1-1.3,0.2
		c-0.3,0.1-0.6,0.2-1.1,0.2l-0.1,0l-1,0.4l-0.1,0L228,2.6c-0.2,0.2-0.8,0.5-1.7,0.8c-0.9,0.3-1.5,0.7-2,1.2c-0.1,0-0.2,0.1-0.3,0.2
		c-0.1,0.1-0.2,0.3-0.2,0.4c-0.2-0.1-0.3-0.1-0.6-0.1c-0.3,0-0.7,0.1-0.9,0.4l0,0L222,6c-1.2,0.7-2.3,1.5-3.3,2.3
		c-0.5,0.4-0.9,0.8-1.2,1.1c-0.1,0.1-0.2,0.3-0.3,0.4l-0.1,0.2c0,0.1-0.1,0.2-0.1,0.3v0.1l0,0.1c-0.1,0-0.1,0-0.2,0
		c-0.2,0-0.3,0-0.4,0.1c-0.3,0.2-0.7,0.4-1.1,0.8c-0.4,0.4-1,0.9-1.6,1.6c-0.6,0.3-1.1,0.6-1.4,1c-0.3,0.3-0.6,0.7-0.7,1.1l-0.2,0.2
		l0,0c-0.2,0.1-0.4,0.3-0.5,0.5c-0.2,0.2-0.5,0.6-0.7,0.9l-0.2,0.2l0.3,0.9c-0.1,0.2-0.1,0.3-0.2,0.4c0,0-0.1,0-0.1,0
		c-0.4,0-0.7,0.2-1,0.4c-0.3,0.2-0.5,0.5-0.6,0.9c-0.3,0.6-0.6,1.1-0.9,1.4l-0.2,0.2v0.2c0,0.2,0,0.3,0.1,0.5
		c-0.1,0-0.2,0.1-0.4,0.1c-0.2,0.1-0.4,0.3-0.5,0.4c-0.3,0.3-0.6,0.7-0.6,1.2c0,0.2,0,0.2,0.1,0.3l0.1,0.3c0,0.1,0.1,0.2,0.1,0.3
		c-0.1,0-0.2,0.1-0.2,0.2l-0.2,0c-0.4,0-0.6,0.2-0.7,0.3c-0.2,0.2-0.4,0.4-0.6,0.7c-0.4,0.6-0.7,1-0.7,1.5c0,0.2-0.1,0.2-0.2,0.3
		l0,0l0,0c-0.2,0.2-0.4,0.3-0.6,0.4l-0.1,0l-0.3,0.4l-0.2,0.2l-0.1,0.2c0,0.1-0.1,0.2-0.1,0.3V29l0.2,0.9l0,0c0,0.1,0,0.2,0,0.2
		c0,0,0,0,0,0c-0.2,0.1-0.4,0.3-0.5,0.6c-0.1,0.2-0.2,0.3-0.4,0.5c-0.4,0.3-0.6,0.7-0.9,1.4c-0.1,0.3-0.3,0.5-0.3,0.7l-0.1,0.3
		c0,0.1,0,0.2-0.1,0.3v0.1l-0.3,0.3l-0.1,0.1l0,0.1l-1.2,3.3l0,0c-0.1,0.1-0.1,0.3-0.2,0.5c-0.1,0.2-0.1,0.5-0.2,0.9
		c-0.1,0.7-0.5,1.7-1,3.1c-0.3,0.7-0.5,1.3-0.6,1.7c-0.1,0.2-0.1,0.4-0.2,0.5c0,0.2-0.1,0.3-0.1,0.4v0.1l0.1,0.4l-0.2,1.1l0,0v0.3
		v0.1l0.1,0.4c0,0.6,0.1,1.4,0.2,2.3l0,0.1l1,3.2c0,0.1,0,0.1,0,0.1c0.1,0.2,0.2,0.3,0.3,0.6l0,0c0.2,0.3,0.3,0.5,0.3,0.9l0,0.2
		l0.1,0.1c0.4,0.4,0.6,0.6,0.7,0.7c0.1,0.4,0.2,0.7,0.4,1c0.2,0.2,0.5,0.4,0.8,0.5c0.3,0.5,0.6,1,1,1.3c0.4,0.3,1,0.5,1.5,0.5h0.3
		c1.1,0.6,2.2,1,3.3,1c0.1,0,0.2,0,0.3,0c0.1,0,0.2-0.1,0.3-0.1l0,0l0.6-0.3c0.2,0.1,0.3,0.1,0.4,0.2l0.2,0.1c0.1,0,0.1,0,0.3,0
		c0.3,0,0.5-0.1,0.7-0.2c0.2-0.2,0.4-0.4,0.5-0.7c0.1,0,0.3,0,0.4,0c0.2,0,0.5-0.1,0.7-0.2c0.1-0.1,0.3-0.2,0.4-0.3l0.4-0.1l0,0
		c0.2,0,0.4-0.1,0.6-0.3c0.1-0.1,0.1-0.1,0.2-0.2c0.2,0,0.3,0,0.5,0h0.1l1.9-0.6c0.3,0,0.6-0.2,0.9-0.5c0.3-0.2,0.5-0.5,0.8-0.9
		c0.3,0,0.5-0.1,0.7-0.2c0.3-0.2,0.5-0.4,0.7-0.7c0.1-0.1,0.1-0.2,0.1-0.3c0.5-0.1,0.9-0.2,1.3-0.4c0.4-0.2,0.8-0.4,1-0.8
		c0.1-0.2,0.3-0.4,0.4-0.5l0.1-0.1l0,0l0,0l0,0c0.2-0.1,0.4-0.4,0.4-0.7v0c0.1,0.1,0.3,0.1,0.4,0.1c0.2,0,0.5-0.1,0.6-0.2
		c0.2-0.1,0.3-0.3,0.4-0.4c0.1-0.2,0.3-0.4,0.3-0.4l0,0c0.2-0.1,0.3-0.3,0.4-0.5c0.1-0.2,0.2-0.4,0.3-0.6c0.1-0.2,0.1-0.3,0.2-0.3
		l0.2-0.1l0,0c0.5,0,1-0.3,1.4-0.7c0.1-0.1,0.2-0.2,0.2-0.3l0.3,0l0.3,0l0.3-0.3l0.1-0.1l0-0.1c0.2-0.4,0.8-1.2,1.7-2.1
		c0.4,0,0.7-0.1,1-0.4c0.3-0.3,0.4-0.6,0.5-1l0,0l0,0c0,0,0.2-0.2,0.4-0.3l0,0c0.4-0.2,0.6-0.5,0.9-0.8c0.2-0.3,0.4-0.7,0.6-1.2
		c0.9-0.3,1.6-1,2-1.9l0,0c0,0,0-0.1,0.2-0.1l0,0c0.2-0.1,0.4-0.2,0.6-0.4c0.1,0,0.1,0,0.1-0.1c0.2-0.1,0.3-0.3,0.3-0.4
		c0-0.1,0.1-0.3,0.1-0.4c0-0.2,0.1-0.3,0.2-0.4l0,0l1.7-1.6l0.1-0.7l0.4-0.4l0,0c0.4-0.3,0.6-0.7,0.5-1.2c0-0.6-0.1-1.2-0.4-1.6
		c-0.1-0.2-0.3-0.4-0.6-0.5c-0.2-0.1-0.5-0.2-0.7-0.2c-0.1,0-0.3,0-0.4,0.1c-0.1,0-0.2,0.1-0.3,0.2l-0.8,0.4
		c-0.6,0.1-1.1,0.3-1.5,0.6c-0.2,0.1-0.4,0.3-0.5,0.5c-0.1,0.2-0.2,0.4-0.2,0.7c0,0.1,0,0.2,0,0.2h-0.1c-0.2,0-0.4,0.1-0.6,0.2
		c-0.3,0.2-0.5,0.4-0.6,0.7c-0.1,0.2-0.2,0.5-0.3,0.7h-0.1H231l-0.1,0c-0.3,0.1-0.5,0.2-0.7,0.5c-0.2,0.2-0.3,0.5-0.3,0.8
		c0,0.1,0,0.1,0,0.2l-0.3,0l-0.3,0l-1.6,1.6c-0.4,0.2-0.8,0.5-1,0.8c-0.2,0.2-0.3,0.5-0.4,0.8c-0.5,0.3-0.8,0.5-1.1,0.7
		c-0.2,0.1-0.3,0.2-0.4,0.4c-0.1,0.1-0.2,0.2-0.2,0.4c-0.2,0-0.3,0-0.4,0c-0.3,0-0.6,0.2-0.8,0.4c-0.2,0.2-0.4,0.5-0.5,0.8
		c-0.1,0.4-0.8,1.1-1.9,2c-0.6,0.5-1,0.9-1.4,1.2c-0.2,0.2-0.3,0.3-0.4,0.4c-0.1,0.1-0.2,0.2-0.3,0.4l0,0c-0.1,0.1-0.1,0.1-0.2,0.1
		l0,0c-0.1,0-0.3,0-0.4,0.1c-0.1,0-0.2,0.1-0.4,0.2l0,0c-0.5,0.5-1.2,1-2.1,1.6c-0.2,0-0.4,0.1-0.5,0.2c-0.2,0.2-0.4,0.4-0.6,0.6
		c-0.2,0.2-0.3,0.4-0.4,0.5l-0.1,0.1l0,0l0,0l0,0c-0.1,0.1-0.2,0.2-0.3,0.4h0l-0.1,0c-0.5,0.2-0.9,0.3-1,0.3c-0.3,0-0.6,0.1-0.8,0.3
		c-0.2,0.2-0.4,0.4-0.5,0.7c-0.1,0.2-0.2,0.3-0.3,0.3c-0.1,0.1-0.3,0.1-0.6,0.1h-0.7h-0.2l-0.1,0.1c-0.6,0.4-1.1,0.6-1.6,0.7l0,0
		c-0.6,0.1-1,0.1-1.2,0.2l0,0c-0.1,0-0.3,0.1-0.6,0.1c-0.1,0-0.2,0-0.3,0c-0.3-0.5-0.5-0.9-0.7-1.3c-0.2-0.4-0.4-0.6-0.7-0.8l0,0
		c-0.1,0-0.1-0.1-0.1-0.1c0.1,0,0.1-0.1,0.2-0.1l0.3-0.3l-0.4-1l0.4-2.7v0c0-0.2-0.1-0.5-0.2-0.7c0-0.1-0.1-0.1-0.1-0.1
		c0.2-0.4,0.4-0.8,0.5-1.1c0.1-0.3,0.2-0.6,0.5-0.9c0.4-0.5,0.5-1.1,0.5-1.8c0-0.2-0.1-0.5-0.2-0.7c0.1-0.1,0.3-0.2,0.4-0.4
		c0.2-0.3,0.4-0.6,0.4-1v-0.5l0.1-0.2c0.1-0.2,0.1-0.3,0.2-0.4l0-0.1l0.5-0.4l0.2-0.2v-0.2c0,0,0-0.2,0.1-0.5
		c0.1-0.3,0.2-0.7,0.3-1.2c0.4-0.4,0.7-0.8,0.8-1.2c0.1-0.3,0.2-0.6,0.4-0.8c0.2-0.3,0.4-0.7,0.5-1.1c0.1-0.2,0.3-0.8,0.7-1.5
		l0.1-0.2l-0.1-0.6L210,32c0.2-0.2,0.3-0.4,0.4-0.7c0.1-0.1,0.2-0.2,0.3-0.4c0.1-0.2,0.2-0.4,0.3-0.7l0,0l0.4-0.8
		c0.3-0.4,0.6-0.8,0.7-1.1l0.1-0.2l-0.2-0.8c0.5-0.3,1-0.5,1.3-0.8c0.4-0.4,0.7-0.9,0.7-1.5V25c0.1-0.2,0.3-0.4,0.4-0.6l0,0l0.3-0.6
		c0.4-0.6,0.6-1.2,0.8-1.9c0.1-0.1,0.2-0.1,0.2-0.2c0.2-0.2,0.3-0.3,0.5-0.6c0.2-0.2,0.3-0.5,0.4-0.7c0.1-0.2,0.1-0.3,0.2-0.5h0.1
		l0.5-0.6c0.4-0.3,0.7-0.6,1-0.9c0.1-0.2,0.3-0.4,0.3-0.6c0.1,0,0.1-0.1,0.2-0.1c0.3-0.2,0.4-0.5,0.5-0.8c0.1-0.2,0.1-0.4,0.2-0.6
		h0.2l0.4-0.2l0.1,0l1.6-1.8c0.1-0.1,0.2-0.2,0.3-0.3c0.1-0.2,0.2-0.4,0.2-0.6v-0.2h0.2h0.2l0.5-0.5l0.1-0.1l0-0.1
		c0.2-0.3,0.3-0.6,0.4-0.7l0,0c0.3,0,0.7-0.1,0.9-0.3c0.2-0.2,0.4-0.5,0.5-0.8l0.6-0.4l0.1-0.1l0.7-0.9c0.5-0.2,0.9-0.5,1.2-0.7l0,0
		c0.3-0.2,0.5-0.3,0.5-0.4c0.2-0.1,0.4-0.2,0.5-0.3c0.1-0.1,0.2-0.3,0.3-0.5c0,0,0,0,0,0c0.2,0.1,0.4,0.2,0.6,0.2
		c0.3,0,0.5-0.1,0.9-0.2c0.3-0.1,0.7-0.3,1.2-0.6c0.5-0.2,0.8-0.4,1.1-0.5c0.3-0.1,0.5-0.2,0.6-0.2c0.3,0,0.4,0.1,0.5,0.2
		c0,0,0.1,0.2,0.2,0.6c0.1,0.3,0.1,0.8,0.2,1.4c-0.3,0.6-0.6,1.3-0.7,2.1c-0.1,0.4-0.1,0.7-0.2,0.9l-0.1,0.2
		c-0.2,0.1-0.4,0.3-0.5,0.4c-0.2,0.2-0.3,0.5-0.3,0.8v0.7c-0.2,0.2-0.4,0.3-0.6,0.4l-0.2,0.2c-0.1,0.1-0.2,0.2-0.2,0.5v0.5l-0.1,0.3
		l-1.5,2.4c-0.3,0.1-0.5,0.2-0.7,0.4c-0.2,0.2-0.4,0.6-0.6,0.9c-0.4,0.3-0.7,0.5-1,0.8c-0.3,0.3-0.5,0.6-0.5,1c0,0.2,0,0.3,0.1,0.4
		c0,0,0,0,0,0c0,0,0,0,0,0h-0.2l-0.1,0.1c-1.6,1-2.9,1.9-3.7,2.8c-0.9,0.9-1.4,1.8-1.4,2.7c0,0.8,0.4,1.5,1.1,2.2
		c0.7,0.6,1.5,1,2.3,1c0.7,0,1.3-0.3,1.9-0.8c0.6-0.5,1.2-1.2,1.7-2.1l0.1-0.2l-0.1-0.7c0.6-0.3,1-0.7,1.3-1.3
		c0.2-0.4,0.6-1,1.4-1.9l0.1-0.1l0-0.1c0.5-1.1,0.9-1.8,1.2-2.2c0.2-0.2,0.3-0.4,0.4-0.5l0.1-0.2l0-0.1c1.5-1.7,2.3-3.1,2.6-4.2
		c0.2-0.9,0.4-1.6,0.7-2.1c0.4-0.6,0.6-1.5,0.8-2.7c0.4-0.4,0.7-1,0.7-1.6v0l-0.1-1.5l0.2-1.8v0C238.5,4.8,237.8,3.6,236.5,2.6z
		 M229,7.4C229,7.4,229,7.4,229,7.4L229,7.4L229,7.4z"/>
	<path class="st3" d="M563.3,14.5l0-1c0-0.8-0.1-1.5-0.2-2c-0.1-0.6-0.4-1.1-0.7-1.4c-0.5-0.5-0.7-0.9-0.7-1.1l0-0.3l-0.5-0.2l0,0
		l0,0c-0.3-0.1-0.4-0.2-0.5-0.2c0-0.1,0-0.1,0-0.2l0.1-0.3L560,6.5l-0.1-0.1c-0.5-0.3-0.7-0.6-0.8-0.8l0,0c-0.1-0.4-0.3-0.7-0.6-0.9
		c-0.3-0.2-0.8-0.3-1.2-0.3h-0.4l-0.5-0.2c-0.6-0.7-1.6-1.1-2.7-1.2c-1.1-0.1-2.1-0.3-2.8-0.5c-0.9-0.2-1.7-0.4-2.6-0.4h-0.1
		l-0.7,0.1c-0.2-0.1-0.4-0.2-0.7-0.2h0l-2.9,0.2l-1.3-0.1l0,0h0c-0.5,0-1.1,0.1-1.7,0.3l0,0c-0.5,0.1-0.9,0.2-1.2,0.2
		c-0.1,0-0.4-0.2-0.8-0.4l-0.4-0.2l-0.4,0.4l0,0l0,0l-0.1,0.1l-0.9-0.2l-0.1,0h-0.2c-0.2,0-0.4,0.1-0.6,0.1c-0.5,0.2-1,0.5-1.8,1
		c0-0.1-0.1-0.1-0.1-0.2c-0.1-0.1-0.3-0.3-0.6-0.3h-0.1l-1.4,0.3c-0.7,0-1.2,0.1-1.7,0.3l0,0l-1.3,0.4c-0.9,0.1-1.6,0.2-2.2,0.3l0,0
		l-6.3,1.8l0,0c-0.3,0.1-0.6,0.2-0.9,0.3c-0.5,0-0.9,0.3-1.2,0.7l0,0l-0.2,0.3c-0.2,0.1-0.4,0.2-0.6,0.4l-0.1,0.1l0,0.1
		c-0.2,0-0.4,0-0.6,0.1l0,0l0,0l-0.5-0.1l-0.2-0.1l-0.4,0.2l0,0l-1.2,0.8l-0.1,0.1c-0.1,0.2-0.3,0.3-0.4,0.4l0,0
		c-0.3,0.2-0.5,0.4-0.7,0.7l-0.3-0.1l-0.2-0.1l-0.2,0c-1,0.2-1.7,0.5-2.1,1.2c-0.2,0.3-0.3,0.5-0.4,0.6c-0.9,0.1-1.8,0.5-2.8,1.2
		l-3.1,2.3c-1.3,0.9-1.9,2.4-1.9,4.2c0,0.2,0,0.2,0.1,0.4c0.1,0.3,0.3,0.8,0.6,1.4c0.2,0.5,0.5,0.8,0.8,1.1c0.3,0.3,0.7,0.5,1.1,0.5
		c0.4,0,0.7-0.2,1-0.4l0,0c0.2-0.1,0.4-0.2,0.5-0.3c0.2-0.1,0.4-0.2,0.5-0.4c0.1-0.2,0.2-0.4,0.2-0.7c0-0.2,0.1-0.5,0.1-0.8l0.1-0.7
		l0.2-0.3l0,0l0,0c0.3-0.7,0.7-1.1,1-1.2l0.3-0.2v-0.8c1.1-0.3,1.9-0.7,2.3-1.4c0.3-0.5,0.6-0.8,0.9-1c0.5-0.3,1-0.7,1.6-1.3
		c0.3-0.3,0.5-0.5,0.7-0.6l0.2-0.1l0,0h0c0.1,0,0.2,0,0.3,0.1c0.1,0,0.2,0,0.3,0c0.5,0,0.8-0.2,1.1-0.5c0.1-0.1,0.2-0.2,0.5-0.3
		c0.3-0.2,0.7-0.3,1.2-0.6c0.9-0.4,1.6-0.7,2.2-1l0.5,0.1l0.2,0l0.2,0c0.7-0.2,1.2-0.4,1.5-0.4c0.4-0.1,0.8-0.2,1.2-0.4l0,0
		c0.3-0.1,0.6-0.2,1-0.3c0.4-0.1,0.9-0.2,1.5-0.4l0.2,0l0.1,0l2.2-0.5c0.8-0.1,1.4-0.3,1.9-0.4c0.2-0.1,0.4-0.1,0.6-0.2
		c0,0,0,0,0.1,0l0.5,0.2l0.2,0.1l0.2-0.1c0.1-0.1,0.2-0.1,0.4-0.2l0.2,0.2c0.1,0.1,0.2,0.1,0.4,0.1c0.2,0,0.4-0.1,0.6-0.2
		c0.2-0.1,0.3-0.2,0.4-0.3l0,0l0,0c0.1-0.1,0.2-0.1,0.3-0.1h0.2c0.6,0.2,1.3,0.3,2.2,0.3h0.3h0.1l0.1,0c0.2-0.1,0.5-0.1,0.9-0.2
		l1.2-0.2c0.2,0.1,0.3,0.1,0.4,0.2c0.2,0,0.3,0.1,0.5,0.1c0.1,0,0.2,0,0.3-0.1c0.2-0.1,0.4-0.2,0.7-0.4l1.1,0.2l2.3,0.2l1-0.2h0.2
		l0,0l0.1,0.1l0,0l0.6,0.3l0.1,0h0.1c0.3,0,0.5,0,0.6,0c0.1,0,0.2,0,0.2,0c0.4,0.2,0.7,0.4,0.9,0.6c0.1,0.1,0.3,0.1,0.4,0.2
		c0.1,0,0.2,0.1,0.4,0.1h0.1h0.1l0.5-0.2l0,0.1c0.1,0.2,0.1,0.3,0.2,0.4l0.1,0.2c0.1,0.1,0.2,0.2,0.4,0.2h0l0.8-0.1l0,0.1l0,0
		c0,0.1,0,0.2,0.1,0.3c0.1,0.1,0.2,0.3,0.3,0.4l0,0c0.9,0.6,1.6,1.4,2,2.3c0.1,0.3,0.2,0.7,0.3,1c0,0.1,0.1,0.3,0.1,0.6
		c0,0.3,0,0.8,0.1,1.3l-0.2,2.2l0.2,1.1c-0.1,0.1-0.2,0.3-0.4,0.5l-0.4,0.4l0.4,0.5c-0.4,0.3-0.7,0.6-1,1.1l-0.1,0.1v0.3
		c0,0.1,0,0.2,0,0.3c0,0,0,0.1,0,0.1l-1,1.1l0.1,0.2c0,0,0,0-0.1,0l-0.2,0.2l-0.1,0.1c0,0,0,0,0,0.1l-0.4,0.6l-0.7,0.5l-0.1,0l0,0.1
		c-0.4,0.4-0.7,0.7-0.9,1c-0.1,0.1-0.2,0.2-0.3,0.2l-0.1,0.1l0,0l0,0l-2.6,1.1c-0.6,0.1-1,0.5-1.4,1c-0.3,0.3-0.5,0.4-0.8,0.5
		c-0.1,0-0.3-0.1-0.5-0.1l-0.2-0.1l-0.2,0.1c-1.1,0.6-2,0.8-2.5,0.8c-0.4,0-0.8,0.1-1.3,0.4l0,0c-0.4,0.2-0.7,0.3-0.8,0.3l0,0
		c-0.3,0-0.7,0.1-1,0.3l0,0c-0.2,0.1-0.7,0.2-1.5,0.2c-0.8,0-1.5,0.2-2,0.4l-0.7,0.1l-1.6-0.2h0c-0.2,0-0.5,0.1-0.6,0.2
		c-0.1,0-0.1,0.1-0.1,0.2c-0.2-0.1-0.3-0.1-0.4-0.2l-0.3-0.1c-0.1,0-0.2,0-0.3-0.1h-0.3h-0.2l-0.1,0.1c-0.3,0.2-0.5,0.3-0.5,0.2
		c-0.2,0-0.3,0-0.5-0.1l0,0c-0.3-0.1-0.5-0.2-0.8-0.2h0l-1.1,0.1c0.1-0.4,0.2-0.9,0.2-1.4c0.8-0.6,1.3-1.4,1.6-2.5
		c0.3-1,0.6-1.7,1-2.2c0.4-0.6,0.8-1.2,1-1.9c0.1-0.5,0.5-1.1,1.2-1.9c0.3-0.2,0.6-0.5,0.9-0.7c0.3-0.2,0.4-0.5,0.6-0.8
		c0.2-0.5,0.2-1,0.2-1.7c0-0.4-0.1-0.8-0.3-1.3c-0.2-0.5-0.5-1.1-0.8-1.7l0,0l-0.1-0.2c-0.1-0.8-0.3-1.4-0.8-1.9l0,0l-1.6-1.4
		l-0.8,0.1l0,0l0,0c-0.2-0.1-0.4-0.1-0.6-0.1c-0.2,0-0.4,0.1-0.6,0.2c-0.5,0.3-0.8,0.8-1.2,1.6c-0.5,1-0.8,1.7-0.9,2.4v0l0.1,0.9
		c-0.3,0.6-0.5,1-0.6,1.4l-2.2,3.9c-0.3,0.5-0.6,1-0.8,1.4c-0.1,0.2-0.2,0.3-0.2,0.5c0,0.1-0.1,0.3-0.1,0.5
		c-0.2,0.1-0.3,0.2-0.5,0.4c-0.2,0.3-0.4,0.6-0.5,1.1c-0.1,0.4-0.2,0.7-0.3,0.9l0,0.1l-0.3,0.4l-0.1,0.1l0,0.1
		c0,0.1-0.2,0.3-0.4,0.7c-0.3,0.4-0.5,0.8-0.5,1.2c0,0,0,0,0,0c0,0,0,0-0.1,0c-0.3,0.2-0.5,0.4-0.7,0.8c-0.4,0.5-0.6,0.9-0.6,1.4
		c0,0.2,0,0.3,0.1,0.5c-0.1,0-0.2,0.1-0.3,0.1c-0.2,0.1-0.3,0.3-0.4,0.4l0,0l-0.3,0.7c-0.7,0.6-1,1.5-1.1,2.5
		c-0.3,0.3-0.4,0.6-0.7,1.1l-0.4,1l0,0.1l0,0.1c0,0-0.1,0.2-0.2,0.4c-0.1,0.2-0.3,0.5-0.5,0.9l-0.1,0.2l0.1,0.8l-0.1,0.1
		c-0.1,0.1-0.2,0.2-0.3,0.3c-0.1,0.2-0.2,0.4-0.2,0.6V41v0.1l0,0.1c0.1,0.2,0.2,0.4,0.2,0.6l-0.2,0.1c-0.4,0.2-0.6,0.4-0.8,0.5
		l-0.2,0.2l-0.1,0.1c0,0-0.1,0.1-0.1,0.2l0,0l-2.8,5.1l0,0c-1.2,2.3-1.8,3.9-1.8,5.2c0,1,0.3,1.9,1,2.5l0,0l0.2,0.3
		c0.3,0.9,0.7,1.5,1.2,2c0.6,0.5,1.3,0.8,2.1,0.8c0.7,0,1.4-0.3,2-0.8c0.3-0.3,0.6-0.5,0.7-0.8c0.2-0.3,0.3-0.6,0.3-1v0l-0.1-2.4
		c0-0.6,0.2-0.9,0.6-1.2l0.2-0.1l0.4-1.5l0.2-0.4l0,0l0,0c0.3-0.6,0.6-1,0.7-1.3c0.1-0.2,0.2-0.3,0.2-0.4l0.1-0.2c0-0.1,0-0.1,0-0.3
		v-1.1l0,0c0.4-0.2,0.7-0.6,0.9-1c0.1-0.2,0.2-0.6,0.4-1c0.3-0.5,0.5-1.2,0.6-2.2c0.5-0.3,0.9-0.7,1.2-1c0.3-0.4,0.5-0.9,0.5-1.4
		v-0.2v-0.1l0-0.1c-0.1-0.2-0.1-0.4-0.2-0.5c0.4-0.1,0.7-0.2,1-0.4c0.4-0.3,0.6-0.7,0.7-1.2c0.1-0.6,0.5-1.2,1-1.6l0.1-0.1l0-0.1
		c0.3-0.4,0.5-0.7,0.6-0.8l0,0c0.1-0.1,0.2-0.2,0.3-0.3l0.7-0.1l0.6,0.1l0.1,0l0.6-0.1l0.6,0.3l0.1,0.1l0.9-0.1l1.8,0.3l1.1-0.3
		l2.2,0.2h0c0.2,0,0.5,0,0.7-0.1l0.2-0.1l0-0.1c0,0,0,0,0,0c0.1,0.1,0.3,0.1,0.4,0.1h0l1.9-0.3l0,0c0.4,0,0.7-0.2,1-0.4
		c0.4,0,0.7,0.1,0.9,0.1c0.1,0,0.2,0.1,0.3,0.1l0,0l0.2,0.2l1.1-0.2l0.2,0l0.1-0.2c0.1-0.2,0.3-0.3,0.4-0.4l0.9,0.3l0.1,0h0.1
		c0.4,0,0.9-0.1,1.5-0.2c0.6-0.1,1.4-0.3,2.4-0.6l0,0l2.3-1l0,0c0.2-0.1,0.3-0.1,0.5-0.2c0.1-0.1,0.2-0.2,0.4-0.3l0.7,0.2l0.2,0
		l0.2-0.1c1-0.4,1.7-0.6,1.9-0.7l0,0c0.2-0.1,0.4-0.2,0.7-0.3c0.3-0.2,0.7-0.4,1.1-0.6c0.8-0.5,1.4-1,1.8-1.6c0,0,0,0,0,0
		c0.2,0,0.4-0.1,0.5-0.1c0.4-0.2,0.9-0.6,1.6-1.3c0.1,0,0.2-0.1,0.3-0.1c0.2-0.2,0.4-0.4,0.5-0.6c0.1-0.2,0.2-0.4,0.3-0.7
		c1-1,2-2.5,2.9-4.5c0.9-2.2,1.4-4,1.4-5.7v0L563.3,14.5z M554.6,19.9L554.6,19.9L554.6,19.9C554.6,19.9,554.6,19.9,554.6,19.9z"/>
	<polygon class="st4" points="88.7,15.5 88.7,15.5 88.7,15.5 	"/>
</g>
</svg>
