<?xml version="1.0" encoding="utf-8"?>
<!-- Generator: Adobe Illustrator 19.2.0, SVG Export Plug-In . SVG Version: 6.00 Build 0)  -->
<svg version="1.1" id="Layer_1" xmlns="http://www.w3.org/2000/svg" xmlns:xlink="http://www.w3.org/1999/xlink" x="0px" y="0px"
	 viewBox="0 0 776 61" style="enable-background:new 0 0 776 61;" xml:space="preserve">
<style type="text/css">
	.st0{fill:#050505;}
	.st1{fill:#954922;}
	.st2{fill:#8FB4DF;}
	.st3{fill:#174C7D;}
</style>
<g>
	<path class="st0" d="M41,36.8l9.9,3.1c-1.5,5.5-4,9.6-7.5,12.2c-3.5,2.7-8,4-13.4,4c-6.7,0-12.2-2.3-16.5-6.9
		c-4.3-4.6-6.5-10.8-6.5-18.7c0-8.4,2.2-14.9,6.5-19.5c4.3-4.6,10-7,17.1-7c6.2,0,11.2,1.8,15,5.5c2.3,2.2,4,5.2,5.2,9.3l-10.1,2.4
		c-0.6-2.6-1.8-4.7-3.7-6.2c-1.9-1.5-4.2-2.3-6.9-2.3c-3.7,0-6.8,1.3-9.1,4c-2.3,2.7-3.5,7-3.5,13c0,6.4,1.1,10.9,3.4,13.6
		c2.3,2.7,5.3,4.1,8.9,4.1c2.7,0,5-0.9,7-2.6C38.8,43.1,40.2,40.4,41,36.8z"/>
	<path class="st1" d="M243.7,36.8l9.9,3.1c-1.5,5.5-4,9.6-7.5,12.2c-3.5,2.7-8,4-13.4,4c-6.7,0-12.2-2.3-16.5-6.9
		c-4.3-4.6-6.5-10.8-6.5-18.7c0-8.4,2.2-14.9,6.5-19.5c4.3-4.6,10-7,17.1-7c6.2,0,11.2,1.8,15,5.5c2.3,2.2,4,5.2,5.2,9.3l-10.1,2.4
		c-0.6-2.6-1.8-4.7-3.7-6.2c-1.9-1.5-4.2-2.3-6.9-2.3c-3.7,0-6.8,1.3-9.1,4c-2.3,2.7-3.5,7-3.5,13c0,6.4,1.1,10.9,3.4,13.6
		c2.3,2.7,5.3,4.1,8.9,4.1c2.7,0,5-0.9,7-2.6C241.5,43.1,242.9,40.4,243.7,36.8z"/>
	<path class="st2" d="M524.6,55.3V4.9h16.3c6.2,0,10.2,0.3,12.1,0.8c2.9,0.8,5.3,2.4,7.2,4.9c1.9,2.5,2.9,5.8,2.9,9.8
		c0,3.1-0.6,5.7-1.7,7.8c-1.1,2.1-2.5,3.8-4.3,5c-1.7,1.2-3.5,2-5.3,2.4c-2.4,0.5-5.9,0.7-10.5,0.7h-6.6v19H524.6z M534.8,13.4v14.3
		h5.6c4,0,6.7-0.3,8-0.8c1.4-0.5,2.4-1.4,3.2-2.5c0.8-1.1,1.2-2.4,1.2-3.9c0-1.8-0.5-3.3-1.6-4.5c-1.1-1.2-2.4-1.9-4.1-2.2
		c-1.2-0.2-3.7-0.3-7.3-0.3H534.8z"/>
	<path class="st3" d="M79.2,25.7c0,0.5,0,1,0,1.3c0,0.4-0.1,0.6-0.1,0.8c-0.1,0.2-0.2,0.4-0.3,0.5c-0.1,0.1-0.3,0.2-0.4,0.2
		c-0.2,0-0.4-0.1-0.7-0.2c-0.3-0.1-0.6-0.2-0.9-0.3c-0.3-0.1-0.7-0.2-1.1-0.3c-0.4-0.1-0.9-0.1-1.4-0.1c-0.6,0-1.2,0.1-1.7,0.4
		c-0.6,0.2-1.2,0.6-1.8,1.2c-0.6,0.5-1.3,1.3-2,2.1c-0.7,0.9-1.4,2-2.3,3.3v20.9c0,0.2,0,0.3-0.1,0.5c-0.1,0.1-0.2,0.2-0.5,0.3
		c-0.2,0.1-0.5,0.2-0.9,0.2c-0.4,0-0.9,0.1-1.4,0.1c-0.6,0-1,0-1.4-0.1c-0.4,0-0.7-0.1-0.9-0.2c-0.2-0.1-0.4-0.2-0.5-0.3
		c-0.1-0.1-0.1-0.3-0.1-0.5V23.7c0-0.2,0-0.3,0.1-0.5c0.1-0.1,0.2-0.2,0.4-0.4c0.2-0.1,0.5-0.2,0.8-0.2c0.3,0,0.8-0.1,1.3-0.1
		c0.5,0,0.9,0,1.3,0.1c0.3,0,0.6,0.1,0.8,0.2c0.2,0.1,0.3,0.2,0.4,0.4c0.1,0.1,0.1,0.3,0.1,0.5v4.6c0.9-1.3,1.7-2.3,2.4-3.1
		c0.8-0.8,1.5-1.4,2.2-1.9c0.7-0.5,1.4-0.8,2-1c0.7-0.2,1.3-0.3,2-0.3c0.3,0,0.7,0,1,0.1c0.4,0,0.8,0.1,1.2,0.2
		c0.4,0.1,0.8,0.2,1.1,0.3c0.3,0.1,0.6,0.2,0.7,0.4c0.1,0.1,0.2,0.2,0.3,0.3c0,0.1,0.1,0.2,0.1,0.4s0.1,0.4,0.1,0.7
		C79.2,24.8,79.2,25.2,79.2,25.7z"/>
	<path class="st3" d="M110.7,38.2c0,0.9-0.2,1.6-0.7,2c-0.5,0.4-1,0.6-1.6,0.6H87.6c0,1.8,0.2,3.3,0.5,4.8c0.4,1.4,0.9,2.6,1.8,3.6
		c0.8,1,1.9,1.8,3.2,2.3c1.3,0.5,2.9,0.8,4.9,0.8c1.5,0,2.9-0.1,4-0.4c1.2-0.2,2.2-0.5,3.1-0.8c0.9-0.3,1.6-0.6,2.1-0.8
		c0.6-0.2,1-0.4,1.3-0.4c0.2,0,0.3,0,0.4,0.1c0.1,0.1,0.2,0.2,0.3,0.4c0.1,0.2,0.1,0.4,0.2,0.7c0,0.3,0.1,0.7,0.1,1.1
		c0,0.3,0,0.6,0,0.8c0,0.2-0.1,0.4-0.1,0.6s-0.1,0.3-0.2,0.5c-0.1,0.1-0.2,0.3-0.3,0.4c-0.1,0.1-0.5,0.3-1.1,0.6
		c-0.6,0.3-1.5,0.6-2.5,0.9c-1,0.3-2.2,0.5-3.5,0.8c-1.3,0.2-2.7,0.3-4.2,0.3c-2.6,0-4.9-0.4-6.9-1.1c-2-0.7-3.6-1.8-5-3.2
		c-1.3-1.4-2.3-3.2-3-5.4c-0.7-2.2-1-4.7-1-7.5c0-2.7,0.4-5.2,1.1-7.3c0.7-2.2,1.7-4,3-5.5c1.3-1.5,2.9-2.7,4.8-3.5
		c1.9-0.8,4-1.2,6.3-1.2c2.5,0,4.6,0.4,6.4,1.2c1.7,0.8,3.2,1.9,4.3,3.2c1.1,1.4,2,2.9,2.5,4.8c0.5,1.8,0.8,3.8,0.8,5.8V38.2z
		 M104.9,36.4c0.1-3.1-0.6-5.4-2-7.2c-1.4-1.7-3.6-2.6-6.4-2.6c-1.4,0-2.7,0.3-3.8,0.8c-1.1,0.5-2,1.3-2.7,2.1
		c-0.7,0.9-1.3,1.9-1.7,3.1c-0.4,1.2-0.6,2.4-0.7,3.7H104.9z"/>
	<path class="st3" d="M145.5,55.4c0,0.2,0,0.4-0.1,0.5c-0.1,0.1-0.2,0.3-0.4,0.3c-0.2,0.1-0.5,0.1-0.8,0.2c-0.3,0-0.7,0.1-1.2,0.1
		c-0.5,0-0.9,0-1.2-0.1c-0.3,0-0.6-0.1-0.8-0.2c-0.2-0.1-0.4-0.2-0.5-0.3c-0.1-0.1-0.1-0.3-0.1-0.5v-4.2c-1.7,1.8-3.4,3.2-5.2,4.2
		s-3.8,1.5-5.9,1.5c-2.3,0-4.3-0.5-6-1.4c-1.6-0.9-3-2.1-4-3.7c-1-1.5-1.8-3.3-2.2-5.4c-0.5-2.1-0.7-4.3-0.7-6.6
		c0-2.7,0.3-5.2,0.9-7.4c0.6-2.2,1.5-4.1,2.6-5.6c1.2-1.6,2.6-2.7,4.3-3.6c1.7-0.8,3.7-1.3,5.9-1.3c1.9,0,3.6,0.4,5.1,1.2
		c1.5,0.8,3.1,2,4.6,3.6V8.4c0-0.2,0-0.3,0.1-0.5c0.1-0.2,0.2-0.3,0.5-0.4c0.2-0.1,0.5-0.2,0.9-0.2c0.4-0.1,0.8-0.1,1.4-0.1
		c0.6,0,1.1,0,1.4,0.1c0.4,0.1,0.7,0.1,0.9,0.2c0.2,0.1,0.4,0.2,0.5,0.4c0.1,0.2,0.2,0.3,0.2,0.5V55.4z M139.7,33.1
		c-1.6-1.9-3.1-3.4-4.6-4.5c-1.5-1-3-1.5-4.6-1.5c-1.5,0-2.7,0.4-3.8,1.1c-1,0.7-1.9,1.6-2.5,2.8c-0.6,1.2-1.1,2.5-1.4,3.9
		c-0.3,1.5-0.4,2.9-0.4,4.4c0,1.6,0.1,3.2,0.4,4.7c0.2,1.5,0.7,2.9,1.3,4.1c0.6,1.2,1.4,2.1,2.4,2.9c1,0.7,2.3,1.1,3.8,1.1
		c0.8,0,1.5-0.1,2.2-0.3c0.7-0.2,1.5-0.6,2.2-1.1c0.8-0.5,1.5-1.1,2.4-1.9c0.8-0.8,1.7-1.8,2.6-2.9V33.1z"/>
	<path class="st3" d="M162.7,13c0,1.4-0.3,2.3-0.8,2.8c-0.5,0.5-1.5,0.7-2.9,0.7c-1.4,0-2.3-0.2-2.8-0.7c-0.5-0.5-0.8-1.4-0.8-2.7
		c0-1.4,0.3-2.3,0.8-2.8c0.5-0.5,1.5-0.7,2.9-0.7c1.4,0,2.3,0.2,2.8,0.7C162.5,10.7,162.7,11.6,162.7,13z M162.1,55.4
		c0,0.2,0,0.3-0.1,0.5c-0.1,0.1-0.2,0.2-0.5,0.3c-0.2,0.1-0.5,0.2-0.9,0.2c-0.4,0-0.9,0.1-1.4,0.1c-0.6,0-1,0-1.4-0.1
		c-0.4,0-0.7-0.1-0.9-0.2c-0.2-0.1-0.4-0.2-0.5-0.3c-0.1-0.1-0.1-0.3-0.1-0.5V23.7c0-0.2,0-0.3,0.1-0.5c0.1-0.1,0.2-0.3,0.5-0.4
		c0.2-0.1,0.5-0.2,0.9-0.2c0.4,0,0.8-0.1,1.4-0.1c0.6,0,1.1,0,1.4,0.1c0.4,0,0.7,0.1,0.9,0.2c0.2,0.1,0.4,0.2,0.5,0.4
		c0.1,0.1,0.1,0.3,0.1,0.5V55.4z"/>
	<path class="st3" d="M188.1,53.1c0,0.7,0,1.2-0.1,1.6c-0.1,0.4-0.2,0.7-0.4,0.9c-0.2,0.2-0.5,0.4-0.8,0.5c-0.4,0.2-0.8,0.3-1.3,0.4
		s-1,0.2-1.5,0.3c-0.5,0.1-1.1,0.1-1.6,0.1c-1.6,0-3.1-0.2-4.2-0.7c-1.2-0.4-2.1-1.1-2.9-2c-0.8-0.9-1.3-2-1.6-3.3
		c-0.3-1.4-0.5-2.9-0.5-4.8V27.6h-4.4c-0.4,0-0.6-0.2-0.8-0.6c-0.2-0.4-0.3-1-0.3-1.8c0-0.4,0-0.8,0.1-1.1c0.1-0.3,0.1-0.6,0.2-0.8
		c0.1-0.2,0.2-0.3,0.4-0.4c0.2-0.1,0.3-0.1,0.5-0.1h4.4v-7.5c0-0.2,0-0.3,0.1-0.5c0.1-0.1,0.2-0.3,0.5-0.4c0.2-0.1,0.5-0.2,0.9-0.2
		c0.4,0,0.8-0.1,1.4-0.1c0.6,0,1.1,0,1.4,0.1c0.4,0,0.7,0.1,0.9,0.2c0.2,0.1,0.4,0.2,0.5,0.4c0.1,0.1,0.1,0.3,0.1,0.5v7.5h8.1
		c0.2,0,0.4,0,0.5,0.1c0.1,0.1,0.3,0.2,0.4,0.4c0.1,0.2,0.2,0.5,0.2,0.8c0,0.3,0.1,0.7,0.1,1.1c0,0.8-0.1,1.5-0.3,1.8
		c-0.2,0.4-0.5,0.6-0.8,0.6h-8.1v17.7c0,2.2,0.3,3.8,1,5c0.6,1.1,1.8,1.7,3.5,1.7c0.5,0,1-0.1,1.4-0.2c0.4-0.1,0.8-0.2,1.1-0.3
		c0.3-0.1,0.6-0.2,0.8-0.3c0.2-0.1,0.4-0.2,0.6-0.2c0.1,0,0.2,0,0.3,0.1c0.1,0.1,0.2,0.2,0.2,0.3c0.1,0.2,0.1,0.4,0.2,0.7
		C188,52.3,188.1,52.6,188.1,53.1z"/>
	<path class="st3" d="M290.5,39.2c0,2.6-0.3,5-1,7.1c-0.7,2.2-1.7,4-3,5.6c-1.4,1.6-3,2.8-5.1,3.7c-2,0.9-4.4,1.3-7.1,1.3
		c-2.6,0-4.9-0.4-6.8-1.2c-1.9-0.8-3.6-1.9-4.8-3.4c-1.3-1.5-2.3-3.3-2.9-5.4c-0.6-2.1-1-4.5-1-7.2c0-2.6,0.3-5,1-7.1
		c0.7-2.2,1.7-4,3-5.6c1.4-1.6,3-2.8,5.1-3.7c2-0.9,4.4-1.3,7.1-1.3c2.6,0,4.9,0.4,6.8,1.2c1.9,0.8,3.6,1.9,4.8,3.4
		c1.3,1.5,2.3,3.3,2.9,5.4C290.2,34.1,290.5,36.5,290.5,39.2z M284.5,39.6c0-1.7-0.2-3.3-0.5-4.9c-0.3-1.5-0.8-2.9-1.6-4
		c-0.7-1.2-1.7-2.1-3-2.7c-1.3-0.7-2.8-1-4.7-1c-1.7,0-3.2,0.3-4.5,0.9c-1.2,0.6-2.3,1.5-3.1,2.6c-0.8,1.1-1.4,2.4-1.8,4
		s-0.6,3.2-0.6,5c0,1.7,0.2,3.4,0.5,4.9c0.3,1.5,0.9,2.9,1.6,4c0.7,1.1,1.7,2,3,2.7c1.3,0.7,2.8,1,4.7,1c1.7,0,3.2-0.3,4.4-0.9
		c1.3-0.6,2.3-1.5,3.1-2.6c0.8-1.1,1.4-2.4,1.8-3.9C284.3,43.1,284.5,41.4,284.5,39.6z"/>
	<path class="st3" d="M304.9,55.4c0,0.2,0,0.3-0.1,0.5c-0.1,0.1-0.2,0.2-0.5,0.3c-0.2,0.1-0.5,0.2-0.9,0.2c-0.4,0-0.9,0.1-1.4,0.1
		c-0.6,0-1,0-1.4-0.1c-0.4,0-0.7-0.1-0.9-0.2c-0.2-0.1-0.4-0.2-0.5-0.3c-0.1-0.1-0.1-0.3-0.1-0.5V8.3c0-0.2,0-0.4,0.1-0.5
		c0.1-0.1,0.2-0.3,0.5-0.4c0.2-0.1,0.5-0.2,0.9-0.2c0.4,0,0.8-0.1,1.4-0.1c0.6,0,1.1,0,1.4,0.1c0.4,0,0.7,0.1,0.9,0.2
		c0.2,0.1,0.4,0.2,0.5,0.4c0.1,0.1,0.1,0.3,0.1,0.5V55.4z"/>
	<path class="st3" d="M321.5,55.4c0,0.2,0,0.3-0.1,0.5c-0.1,0.1-0.2,0.2-0.5,0.3c-0.2,0.1-0.5,0.2-0.9,0.2c-0.4,0-0.9,0.1-1.4,0.1
		c-0.6,0-1,0-1.4-0.1c-0.4,0-0.7-0.1-0.9-0.2c-0.2-0.1-0.4-0.2-0.5-0.3c-0.1-0.1-0.1-0.3-0.1-0.5V8.3c0-0.2,0-0.4,0.1-0.5
		c0.1-0.1,0.2-0.3,0.5-0.4c0.2-0.1,0.5-0.2,0.9-0.2c0.4,0,0.8-0.1,1.4-0.1c0.6,0,1.1,0,1.4,0.1c0.4,0,0.7,0.1,0.9,0.2
		c0.2,0.1,0.4,0.2,0.5,0.4c0.1,0.1,0.1,0.3,0.1,0.5V55.4z"/>
	<path class="st3" d="M358,38.2c0,0.9-0.2,1.6-0.7,2c-0.5,0.4-1,0.6-1.6,0.6h-20.9c0,1.8,0.2,3.3,0.5,4.8c0.4,1.4,0.9,2.6,1.8,3.6
		c0.8,1,1.9,1.8,3.2,2.3c1.3,0.5,2.9,0.8,4.9,0.8c1.5,0,2.9-0.1,4-0.4c1.2-0.2,2.2-0.5,3.1-0.8c0.9-0.3,1.6-0.6,2.1-0.8
		c0.6-0.2,1-0.4,1.3-0.4c0.2,0,0.3,0,0.4,0.1c0.1,0.1,0.2,0.2,0.3,0.4c0.1,0.2,0.1,0.4,0.2,0.7c0,0.3,0.1,0.7,0.1,1.1
		c0,0.3,0,0.6,0,0.8c0,0.2-0.1,0.4-0.1,0.6c0,0.2-0.1,0.3-0.2,0.5c-0.1,0.1-0.2,0.3-0.3,0.4c-0.1,0.1-0.5,0.3-1.1,0.6
		c-0.6,0.3-1.5,0.6-2.5,0.9c-1,0.3-2.2,0.5-3.5,0.8c-1.3,0.2-2.7,0.3-4.2,0.3c-2.6,0-4.9-0.4-6.9-1.1c-2-0.7-3.6-1.8-5-3.2
		c-1.3-1.4-2.3-3.2-3-5.4c-0.7-2.2-1-4.7-1-7.5c0-2.7,0.4-5.2,1.1-7.3c0.7-2.2,1.7-4,3-5.5c1.3-1.5,2.9-2.7,4.8-3.5
		c1.9-0.8,4-1.2,6.3-1.2c2.5,0,4.6,0.4,6.4,1.2c1.7,0.8,3.2,1.9,4.3,3.2c1.1,1.4,2,2.9,2.5,4.8c0.5,1.8,0.8,3.8,0.8,5.8V38.2z
		 M352.2,36.4c0.1-3.1-0.6-5.4-2-7.2c-1.4-1.7-3.6-2.6-6.4-2.6c-1.4,0-2.7,0.3-3.8,0.8c-1.1,0.5-2,1.3-2.7,2.1
		c-0.7,0.9-1.3,1.9-1.7,3.1c-0.4,1.2-0.6,2.4-0.7,3.7H352.2z"/>
	<path class="st3" d="M388.4,50.6c0,0.4,0,0.7,0,1c0,0.3-0.1,0.5-0.1,0.7c-0.1,0.2-0.1,0.4-0.2,0.5c-0.1,0.2-0.3,0.4-0.6,0.7
		c-0.3,0.3-0.8,0.7-1.5,1.1c-0.7,0.4-1.5,0.8-2.4,1.2c-0.9,0.3-1.8,0.6-2.9,0.8c-1,0.2-2.1,0.3-3.2,0.3c-2.3,0-4.3-0.4-6.1-1.1
		c-1.8-0.8-3.2-1.9-4.4-3.3c-1.2-1.4-2.1-3.2-2.7-5.3c-0.6-2.1-0.9-4.5-0.9-7.3c0-3.1,0.4-5.8,1.1-8.1c0.8-2.2,1.8-4.1,3.1-5.5
		c1.3-1.4,2.9-2.5,4.7-3.2c1.8-0.7,3.7-1,5.8-1c1,0,2,0.1,2.9,0.3c1,0.2,1.8,0.4,2.6,0.7c0.8,0.3,1.5,0.7,2.1,1.1
		c0.6,0.4,1.1,0.7,1.4,1c0.3,0.3,0.5,0.5,0.6,0.7c0.1,0.2,0.2,0.4,0.3,0.6c0.1,0.2,0.1,0.5,0.1,0.8c0,0.3,0,0.6,0,1.1
		c0,0.9-0.1,1.6-0.3,1.9c-0.2,0.4-0.5,0.5-0.8,0.5c-0.4,0-0.8-0.2-1.2-0.6c-0.5-0.4-1-0.8-1.7-1.3c-0.7-0.5-1.6-0.9-2.6-1.3
		c-1-0.4-2.2-0.6-3.5-0.6c-2.8,0-4.9,1.1-6.4,3.2c-1.5,2.1-2.2,5.3-2.2,9.4c0,2,0.2,3.8,0.6,5.4c0.4,1.5,1,2.8,1.7,3.9
		c0.8,1,1.7,1.8,2.8,2.3c1.1,0.5,2.3,0.8,3.8,0.8c1.3,0,2.5-0.2,3.5-0.6c1-0.4,1.9-0.9,2.6-1.4c0.7-0.5,1.4-1,1.9-1.4
		c0.5-0.4,0.9-0.6,1.2-0.6c0.2,0,0.3,0,0.4,0.1c0.1,0.1,0.2,0.3,0.3,0.5c0.1,0.2,0.1,0.5,0.2,0.8C388.4,49.7,388.4,50.1,388.4,50.6z
		"/>
	<path class="st3" d="M464.6,39.2c0,2.6-0.3,5-1,7.1c-0.7,2.2-1.7,4-3,5.6c-1.4,1.6-3,2.8-5.1,3.7c-2,0.9-4.4,1.3-7.1,1.3
		c-2.6,0-4.9-0.4-6.8-1.2c-1.9-0.8-3.6-1.9-4.8-3.4c-1.3-1.5-2.3-3.3-2.9-5.4c-0.6-2.1-1-4.5-1-7.2c0-2.6,0.3-5,1-7.1
		c0.7-2.2,1.7-4,3-5.6c1.4-1.6,3-2.8,5.1-3.7c2-0.9,4.4-1.3,7.1-1.3c2.6,0,4.9,0.4,6.8,1.2c1.9,0.8,3.6,1.9,4.8,3.4
		c1.3,1.5,2.3,3.3,2.9,5.4C464.3,34.1,464.6,36.5,464.6,39.2z M458.6,39.6c0-1.7-0.2-3.3-0.5-4.9c-0.3-1.5-0.8-2.9-1.6-4
		c-0.7-1.2-1.7-2.1-3-2.7c-1.3-0.7-2.8-1-4.7-1c-1.7,0-3.2,0.3-4.5,0.9c-1.2,0.6-2.3,1.5-3.1,2.6c-0.8,1.1-1.4,2.4-1.8,4
		s-0.6,3.2-0.6,5c0,1.7,0.2,3.4,0.5,4.9c0.3,1.5,0.9,2.9,1.6,4c0.7,1.1,1.7,2,3,2.7c1.3,0.7,2.8,1,4.7,1c1.7,0,3.2-0.3,4.4-0.9
		c1.3-0.6,2.3-1.5,3.1-2.6s1.4-2.4,1.8-3.9C458.4,43.1,458.6,41.4,458.6,39.6z"/>
	<path class="st3" d="M500.5,55.4c0,0.2,0,0.3-0.1,0.5c-0.1,0.1-0.2,0.2-0.5,0.3c-0.2,0.1-0.5,0.2-0.9,0.2c-0.4,0-0.8,0.1-1.4,0.1
		c-0.6,0-1.1,0-1.4-0.1c-0.4,0-0.7-0.1-0.9-0.2c-0.2-0.1-0.4-0.2-0.5-0.3c-0.1-0.1-0.1-0.3-0.1-0.5V36.8c0-1.8-0.1-3.3-0.4-4.4
		c-0.3-1.1-0.7-2.1-1.2-2.9c-0.5-0.8-1.2-1.4-2.1-1.8c-0.9-0.4-1.9-0.6-3-0.6c-1.5,0-2.9,0.5-4.4,1.6c-1.5,1-3,2.5-4.6,4.5v22.2
		c0,0.2,0,0.3-0.1,0.5c-0.1,0.1-0.2,0.2-0.5,0.3c-0.2,0.1-0.5,0.2-0.9,0.2c-0.4,0-0.9,0.1-1.4,0.1c-0.6,0-1,0-1.4-0.1
		c-0.4,0-0.7-0.1-0.9-0.2c-0.2-0.1-0.4-0.2-0.5-0.3c-0.1-0.1-0.1-0.3-0.1-0.5V23.7c0-0.2,0-0.3,0.1-0.5c0.1-0.1,0.2-0.2,0.4-0.4
		c0.2-0.1,0.5-0.2,0.8-0.2c0.3,0,0.8-0.1,1.3-0.1c0.5,0,0.9,0,1.3,0.1c0.3,0,0.6,0.1,0.8,0.2c0.2,0.1,0.3,0.2,0.4,0.4
		c0.1,0.1,0.1,0.3,0.1,0.5v4.2c1.8-2,3.6-3.5,5.3-4.4c1.8-0.9,3.6-1.4,5.4-1.4c2.1,0,3.9,0.4,5.3,1.1c1.4,0.7,2.6,1.7,3.5,2.9
		c0.9,1.2,1.5,2.6,1.9,4.2c0.4,1.6,0.6,3.5,0.6,5.8V55.4z"/>
	<path class="st3" d="M595,55.4c0,0.3-0.1,0.5-0.3,0.6c-0.2,0.1-0.4,0.2-0.8,0.3c-0.3,0.1-0.8,0.1-1.4,0.1c-0.6,0-1.1,0-1.5-0.1
		c-0.4-0.1-0.6-0.2-0.8-0.3c-0.2-0.1-0.2-0.4-0.2-0.6v-3.2c-1.4,1.5-2.9,2.6-4.6,3.5c-1.7,0.8-3.5,1.2-5.4,1.2
		c-1.7,0-3.2-0.2-4.5-0.7c-1.4-0.4-2.5-1.1-3.5-1.9c-1-0.8-1.7-1.8-2.2-3c-0.5-1.2-0.8-2.6-0.8-4.1c0-1.8,0.4-3.3,1.1-4.7
		c0.7-1.3,1.8-2.4,3.1-3.3c1.4-0.9,3-1.5,5-2c2-0.4,4.2-0.7,6.7-0.7h4.4v-2.5c0-1.2-0.1-2.3-0.4-3.2c-0.3-0.9-0.7-1.7-1.3-2.3
		c-0.6-0.6-1.3-1.1-2.2-1.4c-0.9-0.3-2-0.5-3.4-0.5c-1.4,0-2.7,0.2-3.9,0.5c-1.1,0.3-2.1,0.7-3,1.1c-0.9,0.4-1.6,0.8-2.1,1.1
		c-0.6,0.3-1,0.5-1.3,0.5c-0.2,0-0.4,0-0.5-0.1s-0.3-0.2-0.4-0.4c-0.1-0.2-0.2-0.4-0.2-0.7c0-0.3-0.1-0.6-0.1-1c0-0.6,0-1.1,0.1-1.4
		c0.1-0.3,0.3-0.7,0.6-1c0.3-0.3,0.9-0.7,1.6-1.1c0.8-0.4,1.7-0.8,2.7-1.1c1-0.3,2.1-0.6,3.3-0.8c1.2-0.2,2.4-0.3,3.6-0.3
		c2.3,0,4.2,0.3,5.8,0.8c1.6,0.5,2.9,1.3,3.9,2.3c1,1,1.7,2.2,2.1,3.7c0.4,1.5,0.7,3.2,0.7,5.2V55.4z M589.2,40.9h-5
		c-1.6,0-3,0.1-4.2,0.4c-1.2,0.3-2.1,0.7-2.9,1.2c-0.8,0.5-1.3,1.2-1.7,1.9c-0.4,0.7-0.5,1.6-0.5,2.6c0,1.6,0.5,3,1.6,3.9
		c1,1,2.5,1.5,4.4,1.5c1.5,0,2.9-0.4,4.2-1.2c1.3-0.8,2.7-2,4.1-3.6V40.9z"/>
	<path class="st3" d="M621.7,25.7c0,0.5,0,1,0,1.3c0,0.4-0.1,0.6-0.1,0.8c-0.1,0.2-0.2,0.4-0.3,0.5c-0.1,0.1-0.3,0.2-0.4,0.2
		c-0.2,0-0.4-0.1-0.7-0.2c-0.3-0.1-0.6-0.2-0.9-0.3c-0.3-0.1-0.7-0.2-1.1-0.3c-0.4-0.1-0.9-0.1-1.4-0.1c-0.6,0-1.2,0.1-1.7,0.4
		c-0.6,0.2-1.2,0.6-1.8,1.2c-0.6,0.5-1.3,1.3-2,2.1c-0.7,0.9-1.4,2-2.3,3.3v20.9c0,0.2,0,0.3-0.1,0.5c-0.1,0.1-0.2,0.2-0.5,0.3
		c-0.2,0.1-0.5,0.2-0.9,0.2c-0.4,0-0.9,0.1-1.4,0.1c-0.6,0-1,0-1.4-0.1c-0.4,0-0.7-0.1-0.9-0.2c-0.2-0.1-0.4-0.2-0.5-0.3
		c-0.1-0.1-0.1-0.3-0.1-0.5V23.7c0-0.2,0-0.3,0.1-0.5c0.1-0.1,0.2-0.2,0.4-0.4c0.2-0.1,0.5-0.2,0.8-0.2c0.3,0,0.8-0.1,1.3-0.1
		c0.5,0,0.9,0,1.3,0.1c0.3,0,0.6,0.1,0.8,0.2c0.2,0.1,0.3,0.2,0.4,0.4c0.1,0.1,0.1,0.3,0.1,0.5v4.6c0.9-1.3,1.7-2.3,2.4-3.1
		c0.8-0.8,1.5-1.4,2.2-1.9c0.7-0.5,1.4-0.8,2-1c0.7-0.2,1.3-0.3,2-0.3c0.3,0,0.7,0,1,0.1c0.4,0,0.8,0.1,1.2,0.2
		c0.4,0.1,0.8,0.2,1.1,0.3c0.3,0.1,0.6,0.2,0.7,0.4c0.1,0.1,0.2,0.2,0.3,0.3c0,0.1,0.1,0.2,0.1,0.4c0,0.2,0.1,0.4,0.1,0.7
		C621.7,24.8,621.7,25.2,621.7,25.7z"/>
	<path class="st3" d="M646.1,53.1c0,0.7,0,1.2-0.1,1.6c-0.1,0.4-0.2,0.7-0.4,0.9c-0.2,0.2-0.5,0.4-0.8,0.5c-0.4,0.2-0.8,0.3-1.3,0.4
		c-0.5,0.1-1,0.2-1.5,0.3c-0.5,0.1-1.1,0.1-1.6,0.1c-1.6,0-3.1-0.2-4.2-0.7c-1.2-0.4-2.1-1.1-2.9-2c-0.8-0.9-1.3-2-1.6-3.3
		c-0.3-1.4-0.5-2.9-0.5-4.8V27.6h-4.4c-0.4,0-0.6-0.2-0.8-0.6c-0.2-0.4-0.3-1-0.3-1.8c0-0.4,0-0.8,0.1-1.1c0.1-0.3,0.1-0.6,0.2-0.8
		c0.1-0.2,0.2-0.3,0.4-0.4c0.2-0.1,0.3-0.1,0.5-0.1h4.4v-7.5c0-0.2,0-0.3,0.1-0.5c0.1-0.1,0.2-0.3,0.5-0.4c0.2-0.1,0.5-0.2,0.9-0.2
		c0.4,0,0.8-0.1,1.4-0.1c0.6,0,1.1,0,1.4,0.1c0.4,0,0.7,0.1,0.9,0.2c0.2,0.1,0.4,0.2,0.5,0.4c0.1,0.1,0.1,0.3,0.1,0.5v7.5h8.1
		c0.2,0,0.4,0,0.5,0.1c0.1,0.1,0.3,0.2,0.4,0.4c0.1,0.2,0.2,0.5,0.2,0.8c0,0.3,0.1,0.7,0.1,1.1c0,0.8-0.1,1.5-0.3,1.8
		c-0.2,0.4-0.5,0.6-0.8,0.6h-8.1v17.7c0,2.2,0.3,3.8,1,5c0.6,1.1,1.8,1.7,3.5,1.7c0.5,0,1-0.1,1.4-0.2c0.4-0.1,0.8-0.2,1.1-0.3
		c0.3-0.1,0.6-0.2,0.8-0.3c0.2-0.1,0.4-0.2,0.6-0.2c0.1,0,0.2,0,0.3,0.1c0.1,0.1,0.2,0.2,0.2,0.3c0.1,0.2,0.1,0.4,0.2,0.7
		C646.1,52.3,646.1,52.6,646.1,53.1z"/>
	<path class="st3" d="M412.6,53.1c0,0.7,0,1.2-0.1,1.6c-0.1,0.4-0.2,0.7-0.4,0.9c-0.2,0.2-0.5,0.4-0.8,0.5c-0.4,0.2-0.8,0.3-1.3,0.4
		c-0.5,0.1-1,0.2-1.5,0.3c-0.5,0.1-1.1,0.1-1.6,0.1c-1.6,0-3.1-0.2-4.2-0.7c-1.2-0.4-2.1-1.1-2.9-2c-0.8-0.9-1.3-2-1.6-3.3
		c-0.3-1.4-0.5-2.9-0.5-4.8V27.6h-4.4c-0.4,0-0.6-0.2-0.8-0.6c-0.2-0.4-0.3-1-0.3-1.8c0-0.4,0-0.8,0.1-1.1c0.1-0.3,0.1-0.6,0.2-0.8
		c0.1-0.2,0.2-0.3,0.4-0.4c0.2-0.1,0.3-0.1,0.5-0.1h4.4v-7.5c0-0.2,0-0.3,0.1-0.5c0.1-0.1,0.2-0.3,0.5-0.4c0.2-0.1,0.5-0.2,0.9-0.2
		c0.4,0,0.8-0.1,1.4-0.1c0.6,0,1.1,0,1.4,0.1c0.4,0,0.7,0.1,0.9,0.2s0.4,0.2,0.5,0.4c0.1,0.1,0.1,0.3,0.1,0.5v7.5h8.1
		c0.2,0,0.4,0,0.5,0.1c0.1,0.1,0.3,0.2,0.4,0.4c0.1,0.2,0.2,0.5,0.2,0.8c0,0.3,0.1,0.7,0.1,1.1c0,0.8-0.1,1.5-0.3,1.8
		c-0.2,0.4-0.5,0.6-0.8,0.6h-8.1v17.7c0,2.2,0.3,3.8,1,5c0.6,1.1,1.8,1.7,3.5,1.7c0.5,0,1-0.1,1.4-0.2c0.4-0.1,0.8-0.2,1.1-0.3
		c0.3-0.1,0.6-0.2,0.8-0.3c0.2-0.1,0.4-0.2,0.6-0.2c0.1,0,0.2,0,0.3,0.1c0.1,0.1,0.2,0.2,0.2,0.3c0.1,0.2,0.1,0.4,0.2,0.7
		C412.6,52.3,412.6,52.6,412.6,53.1z"/>
	<path class="st3" d="M681.1,55.4c0,0.2,0,0.3-0.1,0.5c-0.1,0.1-0.2,0.2-0.5,0.3c-0.2,0.1-0.5,0.2-0.9,0.2c-0.4,0-0.8,0.1-1.4,0.1
		c-0.6,0-1.1,0-1.4-0.1c-0.4,0-0.7-0.1-0.9-0.2c-0.2-0.1-0.4-0.2-0.5-0.3c-0.1-0.1-0.1-0.3-0.1-0.5V36.8c0-1.8-0.1-3.3-0.4-4.4
		c-0.3-1.1-0.7-2.1-1.2-2.9c-0.5-0.8-1.2-1.4-2.1-1.8c-0.9-0.4-1.9-0.6-3-0.6c-1.5,0-2.9,0.5-4.4,1.6c-1.5,1-3,2.5-4.6,4.5v22.2
		c0,0.2,0,0.3-0.1,0.5c-0.1,0.1-0.2,0.2-0.5,0.3c-0.2,0.1-0.5,0.2-0.9,0.2c-0.4,0-0.9,0.1-1.4,0.1c-0.6,0-1,0-1.4-0.1
		c-0.4,0-0.7-0.1-0.9-0.2c-0.2-0.1-0.4-0.2-0.5-0.3c-0.1-0.1-0.1-0.3-0.1-0.5V23.7c0-0.2,0-0.3,0.1-0.5c0.1-0.1,0.2-0.2,0.4-0.4
		c0.2-0.1,0.5-0.2,0.8-0.2c0.3,0,0.8-0.1,1.3-0.1c0.5,0,0.9,0,1.3,0.1c0.3,0,0.6,0.1,0.8,0.2c0.2,0.1,0.3,0.2,0.4,0.4
		c0.1,0.1,0.1,0.3,0.1,0.5v4.2c1.8-2,3.6-3.5,5.3-4.4c1.8-0.9,3.6-1.4,5.4-1.4c2.1,0,3.9,0.4,5.3,1.1c1.4,0.7,2.6,1.7,3.5,2.9
		c0.9,1.2,1.5,2.6,1.9,4.2c0.4,1.6,0.6,3.5,0.6,5.8V55.4z"/>
	<path class="st3" d="M717.5,38.2c0,0.9-0.2,1.6-0.7,2c-0.5,0.4-1,0.6-1.6,0.6h-20.9c0,1.8,0.2,3.3,0.5,4.8c0.4,1.4,0.9,2.6,1.8,3.6
		c0.8,1,1.9,1.8,3.2,2.3c1.3,0.5,2.9,0.8,4.9,0.8c1.5,0,2.9-0.1,4-0.4s2.2-0.5,3.1-0.8c0.9-0.3,1.6-0.6,2.1-0.8
		c0.6-0.2,1-0.4,1.3-0.4c0.2,0,0.3,0,0.4,0.1c0.1,0.1,0.2,0.2,0.3,0.4c0.1,0.2,0.1,0.4,0.2,0.7c0,0.3,0.1,0.7,0.1,1.1
		c0,0.3,0,0.6,0,0.8c0,0.2-0.1,0.4-0.1,0.6c0,0.2-0.1,0.3-0.2,0.5c-0.1,0.1-0.2,0.3-0.3,0.4c-0.1,0.1-0.5,0.3-1.1,0.6
		c-0.6,0.3-1.5,0.6-2.5,0.9c-1,0.3-2.2,0.5-3.5,0.8c-1.3,0.2-2.7,0.3-4.2,0.3c-2.6,0-4.9-0.4-6.9-1.1c-2-0.7-3.6-1.8-5-3.2
		c-1.3-1.4-2.3-3.2-3-5.4c-0.7-2.2-1-4.7-1-7.5c0-2.7,0.4-5.2,1.1-7.3c0.7-2.2,1.7-4,3-5.5c1.3-1.5,2.9-2.7,4.8-3.5
		c1.9-0.8,4-1.2,6.3-1.2c2.5,0,4.6,0.4,6.4,1.2c1.7,0.8,3.2,1.9,4.3,3.2c1.1,1.4,2,2.9,2.5,4.8c0.5,1.8,0.8,3.8,0.8,5.8V38.2z
		 M711.7,36.4c0.1-3.1-0.6-5.4-2-7.2c-1.4-1.7-3.6-2.6-6.4-2.6c-1.4,0-2.7,0.3-3.8,0.8c-1.1,0.5-2,1.3-2.7,2.1
		c-0.7,0.9-1.3,1.9-1.7,3.1c-0.4,1.2-0.6,2.4-0.7,3.7H711.7z"/>
	<path class="st3" d="M743.6,25.7c0,0.5,0,1,0,1.3c0,0.4-0.1,0.6-0.1,0.8c-0.1,0.2-0.2,0.4-0.3,0.5c-0.1,0.1-0.3,0.2-0.4,0.2
		c-0.2,0-0.4-0.1-0.7-0.2c-0.3-0.1-0.6-0.2-0.9-0.3s-0.7-0.2-1.1-0.3c-0.4-0.1-0.9-0.1-1.4-0.1c-0.6,0-1.2,0.1-1.7,0.4
		c-0.6,0.2-1.2,0.6-1.8,1.2c-0.6,0.5-1.3,1.3-2,2.1c-0.7,0.9-1.4,2-2.3,3.3v20.9c0,0.2,0,0.3-0.1,0.5c-0.1,0.1-0.2,0.2-0.5,0.3
		c-0.2,0.1-0.5,0.2-0.9,0.2c-0.4,0-0.9,0.1-1.4,0.1c-0.6,0-1,0-1.4-0.1c-0.4,0-0.7-0.1-0.9-0.2c-0.2-0.1-0.4-0.2-0.5-0.3
		c-0.1-0.1-0.1-0.3-0.1-0.5V23.7c0-0.2,0-0.3,0.1-0.5c0.1-0.1,0.2-0.2,0.4-0.4c0.2-0.1,0.5-0.2,0.8-0.2c0.3,0,0.8-0.1,1.3-0.1
		c0.5,0,0.9,0,1.3,0.1c0.3,0,0.6,0.1,0.8,0.2c0.2,0.1,0.3,0.2,0.4,0.4c0.1,0.1,0.1,0.3,0.1,0.5v4.6c0.9-1.3,1.7-2.3,2.4-3.1
		c0.8-0.8,1.5-1.4,2.2-1.9c0.7-0.5,1.4-0.8,2-1c0.7-0.2,1.3-0.3,2-0.3c0.3,0,0.7,0,1,0.1s0.8,0.1,1.2,0.2c0.4,0.1,0.8,0.2,1.1,0.3
		c0.3,0.1,0.6,0.2,0.7,0.4c0.1,0.1,0.2,0.2,0.3,0.3c0,0.1,0.1,0.2,0.1,0.4c0,0.2,0.1,0.4,0.1,0.7C743.6,24.8,743.6,25.2,743.6,25.7z
		"/>
	<path class="st3" d="M768.9,46.7c0,1.6-0.3,3.1-0.9,4.3c-0.6,1.3-1.5,2.3-2.6,3.2c-1.1,0.9-2.4,1.5-3.9,2c-1.5,0.4-3.2,0.7-5,0.7
		c-1.1,0-2.2-0.1-3.2-0.3c-1-0.2-1.9-0.4-2.7-0.7c-0.8-0.3-1.5-0.6-2.1-0.8c-0.6-0.3-1-0.6-1.2-0.8c-0.3-0.2-0.4-0.6-0.6-1
		c-0.1-0.4-0.2-1-0.2-1.7c0-0.4,0-0.8,0.1-1.1c0-0.3,0.1-0.6,0.2-0.7c0.1-0.2,0.2-0.3,0.3-0.4c0.1-0.1,0.3-0.1,0.4-0.1
		c0.3,0,0.6,0.2,1.1,0.5c0.5,0.3,1.1,0.7,1.9,1c0.7,0.4,1.6,0.7,2.6,1c1,0.3,2.2,0.5,3.5,0.5c1,0,1.9-0.1,2.7-0.3s1.5-0.5,2.1-0.9
		c0.6-0.4,1-0.9,1.4-1.6c0.3-0.6,0.5-1.4,0.5-2.3c0-0.9-0.2-1.6-0.7-2.3c-0.5-0.6-1.1-1.2-1.8-1.6c-0.8-0.5-1.6-0.9-2.5-1.3
		c-0.9-0.4-1.9-0.7-2.9-1.1c-1-0.4-2-0.9-2.9-1.4c-1-0.5-1.8-1.1-2.6-1.9c-0.8-0.7-1.4-1.6-1.8-2.6c-0.5-1-0.7-2.2-0.7-3.6
		c0-1.2,0.2-2.4,0.7-3.6c0.5-1.1,1.2-2.1,2.2-3c1-0.9,2.2-1.5,3.6-2.1c1.4-0.5,3.1-0.8,5.1-0.8c0.8,0,1.7,0.1,2.5,0.2
		c0.8,0.1,1.6,0.3,2.3,0.5c0.7,0.2,1.3,0.4,1.7,0.7c0.5,0.2,0.8,0.5,1.1,0.7c0.2,0.2,0.4,0.4,0.5,0.5c0.1,0.1,0.1,0.3,0.2,0.5
		s0.1,0.4,0.1,0.7c0,0.3,0.1,0.6,0.1,1c0,0.4,0,0.7-0.1,1c0,0.3-0.1,0.5-0.2,0.7c-0.1,0.2-0.2,0.3-0.3,0.4c-0.1,0.1-0.2,0.1-0.4,0.1
		c-0.2,0-0.5-0.1-0.9-0.4c-0.4-0.3-0.9-0.5-1.6-0.8c-0.6-0.3-1.4-0.6-2.2-0.8c-0.9-0.3-1.8-0.4-2.9-0.4c-1,0-1.9,0.1-2.6,0.3
		c-0.8,0.2-1.4,0.5-1.8,1c-0.5,0.4-0.8,0.9-1.1,1.5c-0.2,0.6-0.4,1.2-0.4,1.8c0,0.9,0.2,1.7,0.7,2.3c0.5,0.6,1.1,1.2,1.8,1.6
		c0.8,0.5,1.6,0.9,2.6,1.3c1,0.4,1.9,0.8,2.9,1.2c1,0.4,2,0.8,3,1.3c1,0.5,1.8,1.1,2.6,1.8c0.8,0.7,1.4,1.6,1.8,2.5
		C768.7,44.2,768.9,45.4,768.9,46.7z"/>
	<path class="st3" d="M422.6,16.5c1.4,0,2.3-0.2,2.9-0.7c0.5-0.5,0.8-1.4,0.8-2.8c0-1.3-0.3-2.2-0.8-2.7c-0.5-0.5-1.4-0.7-2.8-0.7
		c-1.4,0-2.3,0.2-2.9,0.7c-0.5,0.5-0.8,1.4-0.8,2.8c0,1.3,0.3,2.2,0.8,2.7C420.3,16.2,421.3,16.5,422.6,16.5z"/>
	<path class="st3" d="M425.5,24c-0.2-0.6-0.6-1-1.1-1.2c-0.2-0.1-0.4-0.1-0.6-0.1h-2.3c-0.1,0-0.3,0-0.4,0c-0.8,0.2-1.4,0.9-1.4,1.7
		v2.1v3h0v25.8c0,0.2,0,0.3,0.1,0.5c0.1,0.1,0.3,0.2,0.5,0.3c0.2,0.1,0.5,0.2,0.9,0.2c0.4,0,0.9,0.1,1.4,0.1c0.5,0,1,0,1.4-0.1
		c0.4,0,0.7-0.1,0.9-0.2c0.2-0.1,0.4-0.2,0.5-0.3c0.1-0.1,0.1-0.3,0.1-0.5V26.6v-2v-0.1C425.6,24.3,425.5,24.2,425.5,24z"/>
</g>
</svg>
